<?xml version="1.0" standalone="no"?>
<!DOCTYPE svg PUBLIC "-//W3C//DTD SVG 1.1//EN" "http://www.w3.org/Graphics/SVG/1.1/DTD/svg11.dtd" >
<svg xmlns="http://www.w3.org/2000/svg" xmlns:xlink="http://www.w3.org/1999/xlink" version="1.1">
<metadata>
Created by FontForge 20161116 at Thu Apr 10 16:32:02 2014
 By Jimmy Warting

</metadata>
<defs>
<font id="YekanWeb-Bold" horiz-adv-x="0" >
  <font-face 
    font-family="YekanWeb"
    font-weight="700"
    font-stretch="normal"
    units-per-em="1000"
    panose-1="2 0 8 3 0 0 0 0 0 0"
    ascent="800"
    descent="-200"
    bbox="-177 -469 1218 1103"
    underline-thickness="48"
    underline-position="-48"
    stemh="103"
    stemv="103"
    unicode-range="U+0020-FEFC"
  />
<missing-glyph horiz-adv-x="500" 
d="M50 0v533h400v-533h-400zM100 50h300v433h-300v-433z" />
    <glyph glyph-name="afii64184" unicode="&#xfedf;&#xfee0;&#x651;&#x670;&#xfeea;" horiz-adv-x="1172" arabic-form="isolated" 
d="M748 689h-52v154h52v-154zM832 596c0 -37 -24 -66 -60 -66c-16 0 -30 7 -44 19c-11 -13 -27 -19 -45 -19c-43 0 -63 24 -63 66v59h52v-58c0 -6 3 -9 14 -9c13 0 13 2 13 9v58h51v-58c0 -6 5 -11 18 -11h2c6 0 8 1 8 9v60h54v-59zM198 83c42 0 84 37 84 77
c0 16 -5 33 -15 50l-39 38c-13 13 -24 25 -32 33c-33 -31 -54 -53 -64 -69s-15 -32 -15 -48s7 -33 21 -53c14 -18 32 -28 60 -28zM499 108c8 -8 30 -10 53 -10h10v-2h52c55 0 63 24 63 88v324h102v-341c0 -35 13 -54 29 -62c15 -7 50 -7 86 -7h57c51 0 59 22 59 86v422h101
v-461c0 -93 -64 -150 -156 -150h-89c-75 0 -95 5 -135 37c-22 -18 -42 -28 -60 -31c-20 -4 -62 -6 -127 -6c-39 1 -65 6 -79 18c-10 5 -40 30 -95 80c-36 -71 -94 -109 -174 -109c-100 0 -183 85 -183 185c0 35 13 70 37 106c12 18 39 48 71 81l-27 32l71 71l283 -302
c22 -23 40 -40 50 -49h1z" />
    <glyph glyph-name="afii62834" unicode="&#xfedf;&#xfe82;" horiz-adv-x="544" arabic-form="isolated" 
d="M270 -5c-111 0 -187 40 -187 150v461h103v-422c0 -46 8 -70 15 -76h1c4 -4 26 -10 68 -10h84c24 0 39 8 49 21c5 12 8 34 8 65v422h100v-461c0 -94 -59 -150 -152 -150h-89zM291 659h-203c-23 0 -38 -6 -48 -16c-12 -12 -25 -31 -36 -53l-81 30c20 46 40 86 58 99
c29 24 52 32 102 33h208v-93z" />
    <glyph glyph-name="afii62835" unicode="&#xfee0;&#xfe82;" horiz-adv-x="583" arabic-form="final" 
d="M181 138h-102v468h102v-468zM77 76c0 9 0 15 1 22h260c52 0 59 24 59 86v422h103v-431c0 -62 27 -76 95 -77h9v-103h-10c-50 1 -90 22 -122 60c-33 -40 -75 -60 -126 -60h-198c-47 0 -71 30 -71 81zM297 662h-203c-23 0 -38 -6 -48 -16c-12 -12 -25 -31 -36 -53l-81 30
c20 46 40 86 58 99c29 24 52 32 102 33h208v-93z" />
    <glyph glyph-name="afii62836" unicode="&#xfedf;&#xfe84;" horiz-adv-x="520" arabic-form="isolated" 
d="M255 -5c-111 0 -187 40 -187 150v461h103v-422c0 -46 8 -70 15 -76h1c4 -4 26 -10 68 -10h84c24 0 39 8 49 21c5 12 8 34 8 65v422h100v-461c0 -94 -59 -150 -152 -150h-89zM139 741c11 0 48 9 76 23l22 -52l-197 -72l-15 51l40 15c-14 15 -20 29 -20 45
c0 52 45 97 95 98c21 0 41 -9 58 -24l7 -5l-33 -47l-8 7c-8 7 -17 10 -28 10c-19 0 -33 -11 -33 -26c0 -14 14 -23 35 -23h1z" />
    <glyph glyph-name="afii62837" unicode="&#xfee0;&#xfe84;" horiz-adv-x="578" arabic-form="final" 
d="M177 138h-102v468h102v-468zM73 76c0 9 0 15 1 22h260c52 0 59 24 59 86v422h103v-431c0 -62 27 -76 95 -77h9v-103h-10c-50 1 -90 22 -122 60c-33 -40 -75 -60 -126 -60h-198c-47 0 -71 30 -71 81zM132 747c11 0 48 9 76 23l22 -52l-197 -72l-15 51l40 15
c-14 15 -20 29 -20 45c0 52 45 97 95 98c21 0 41 -9 58 -24l7 -5l-33 -47l-8 7c-8 7 -17 10 -28 10c-19 0 -33 -11 -33 -26c0 -14 14 -23 35 -23h1z" />
    <glyph glyph-name="afii62838" unicode="&#xfedf;&#xfe88;" horiz-adv-x="520" arabic-form="isolated" 
d="M155 -172c11 0 48 9 76 23l22 -52l-197 -72l-15 51l40 15c-14 15 -20 29 -20 45c0 52 45 97 95 98c21 0 41 -9 58 -24l7 -5l-33 -47l-8 7c-8 7 -17 10 -28 10c-19 0 -33 -11 -33 -26c0 -14 14 -23 35 -23h1zM249 -5c-111 0 -187 40 -187 150v461h103v-422
c0 -46 8 -70 15 -76h1c4 -4 26 -10 68 -10h84c24 0 39 8 49 21c5 12 8 34 8 65v422h100v-461c0 -94 -59 -150 -152 -150h-89z" />
    <glyph glyph-name="afii62839" unicode="&#xfee0;&#xfe88;" horiz-adv-x="569" arabic-form="final" 
d="M168 138h-102v468h102v-468zM64 76c0 9 0 15 1 22h260c52 0 59 24 59 86v422h103v-431c0 -62 27 -76 95 -77h9v-103h-10c-50 1 -90 22 -122 60c-33 -40 -75 -60 -126 -60h-198c-47 0 -71 30 -71 81zM156 -184c11 0 48 9 76 23l22 -52l-197 -72l-15 51l40 15
c-14 15 -20 29 -20 45c0 52 45 97 95 98c21 0 41 -9 58 -24l7 -5l-33 -47l-8 7c-8 7 -17 10 -28 10c-19 0 -33 -11 -33 -26c0 -14 14 -23 35 -23h1z" />
    <glyph glyph-name="afii62840" unicode="&#xfedf;&#xfe8e;" horiz-adv-x="522" arabic-form="isolated" 
d="M249 -5c-111 0 -187 40 -187 150v461h103v-422c0 -46 8 -70 15 -76h1c4 -4 26 -10 68 -10h84c24 0 39 8 49 21c5 12 8 34 8 65v422h100v-461c0 -94 -59 -150 -152 -150h-89z" />
    <glyph glyph-name="afii62841" unicode="&#xfee0;&#xfe8e;" horiz-adv-x="547" arabic-form="final" 
d="M146 138h-102v468h102v-468zM42 76c0 9 0 15 1 22h260c52 0 59 24 59 86v422h103v-431c0 -62 27 -76 95 -77h9v-103h-10c-50 1 -90 22 -122 60c-33 -40 -75 -60 -126 -60h-198c-47 0 -71 30 -71 81z" />
    <glyph glyph-name="uni0675.fina" unicode="&#x675;" horiz-adv-x="268" 
d="M278 -5c-125 0 -199 34 -199 150v448h103v-409c0 -49 2 -73 31 -81c21 -5 33 -4 65 -5h10v-103h-10zM148 728c11 0 48 9 76 23l22 -52l-197 -72l-15 51l40 15c-14 15 -20 29 -20 45c0 52 45 97 95 98c21 0 41 -9 58 -24l7 -5l-33 -47l-8 7c-8 7 -17 10 -28 10
c-19 0 -33 -11 -33 -26c0 -14 14 -23 35 -23h1z" />
    <glyph glyph-name="uni0676.fina" unicode="&#x676;" horiz-adv-x="464" 
d="M312 -5c-146 1 -242 38 -242 186c0 76 19 133 59 168c26 21 65 30 114 30c72 0 125 -31 154 -93c16 -39 23 -101 23 -188h64v-103h-64c-2 -95 -55 -165 -119 -203c-38 -22 -79 -34 -126 -34h-125l-15 102h125c46 0 82 14 110 42s41 59 42 93zM317 183c0 55 -28 94 -79 94
c-41 0 -63 -26 -63 -91c0 -37 11 -59 28 -70s55 -18 114 -18v85zM253 543c11 0 48 9 76 23l22 -52l-197 -72l-15 51l40 15c-14 15 -20 29 -20 45c0 52 45 97 95 98c21 0 41 -9 58 -24l7 -5l-33 -47l-8 7c-8 7 -17 10 -28 10c-19 0 -33 -11 -33 -26c0 -14 14 -23 35 -23h1z
" />
    <glyph glyph-name="uni0678.fina" unicode="&#x678;" horiz-adv-x="670" 
d="M690 -5h-85l3 -40c0 -55 -22 -102 -65 -140c-42 -38 -90 -57 -144 -57h-146c-72 0 -131 28 -177 83l-1 1c-39 53 -58 117 -58 192v171h105v-209c0 -31 10 -60 32 -88h1c29 -32 68 -48 120 -48h120c30 0 55 9 78 26c21 16 32 40 32 74c0 13 -8 23 -39 28
c-27 5 -75 7 -144 7h-9l-9 103h386v-103zM225 401c11 0 48 9 76 23l22 -52l-197 -72l-15 51l40 15c-14 15 -20 29 -20 45c0 52 45 97 95 98c21 0 41 -9 58 -24l7 -5l-33 -47l-8 7c-8 7 -17 10 -28 10c-19 0 -33 -11 -33 -26c0 -14 14 -23 35 -23h1z" />
    <glyph glyph-name="afii57459" unicode="&#x6a1;" horiz-adv-x="436" 
d="M190 261c3 -3 23 -5 59 -5h58c-2 52 -32 94 -80 94c-34 0 -60 -17 -60 -43c0 -30 8 -42 21 -46h2zM416 156c0 -55 -20 -97 -58 -125c-30 -23 -60 -36 -93 -36h-286v103h287c31 0 47 17 48 61c-83 0 -136 3 -162 9h-1c-54 23 -81 68 -81 132c0 48 16 87 49 115
s72 42 116 42s84 -16 118 -48c41 -35 61 -84 61 -144z" />
    <glyph glyph-name="afii57374" unicode="&#x6a1;" horiz-adv-x="445" 
d="M217 279c-32 0 -70 -36 -70 -67c0 -33 27 -64 89 -93c18 15 31 28 40 41s14 27 14 41c0 35 -40 78 -73 78zM49 219c0 95 76 160 170 160c51 0 93 -17 123 -53c27 -34 41 -74 41 -118c0 -39 -10 -76 -29 -110h122v-103l-35 3h-25l-66 2c-26 0 -52 2 -75 6h-1l-40 14
c-32 -18 -118 -25 -263 -25h-10v103h134c-31 39 -46 79 -46 121z" />
    <glyph glyph-name="afii52258" unicode="&#x6a1;" horiz-adv-x="842" 
d="M709 201c0 36 -36 78 -69 78c-34 0 -75 -34 -75 -66c0 -31 29 -63 92 -94c36 23 52 51 52 82zM137 167c0 -46 22 -69 66 -69h314c-31 39 -46 78 -46 118c0 43 15 82 45 114s72 49 121 49s91 -18 123 -54c28 -34 43 -73 43 -117c0 -40 -10 -76 -29 -110h86v-103h-10
c-97 0 -163 7 -197 21c-20 -16 -53 -13 -85 -16c-27 -2 -58 -3 -93 -3l-311 -2c-37 0 -70 20 -97 55c-21 32 -32 67 -32 103v146h102v-132z" />
    <glyph glyph-name="uniFB51" unicode="&#x671;" horiz-adv-x="268" arabic-form="final" 
d="M278 -5c-125 0 -199 34 -199 150v448h103v-409c0 -49 2 -73 31 -81c21 -5 33 -4 65 -5h10v-103h-10zM162 677c-1 14 -3 15 -10 15c-1 0 -9 -2 -17 -7l-20 -18h47v10zM152 732c37 0 49 -26 50 -59v-1l-1 -45h-173v40h31l56 48c13 11 25 17 37 17z" />
    <glyph glyph-name="afii62958" unicode="&#x67e;" horiz-adv-x="890" arabic-form="final" 
d="M640 98c30 0 45 4 51 10h2c4 0 13 32 13 59v132h104v-132c0 -55 30 -68 93 -69h10v-103l-64 3l-41 6c-19 6 -36 16 -49 28c-31 -25 -60 -37 -90 -37h-493c-80 0 -138 81 -138 158v146h103v-132c0 -54 12 -69 64 -69h435zM505 -84c36 0 68 -31 68 -67
c0 -37 -31 -68 -68 -68s-67 31 -67 68c0 36 30 67 67 67zM422 -151c0 -36 -32 -68 -68 -68c-37 0 -67 31 -67 68c0 36 31 67 67 67s68 -31 68 -67zM494 -294c0 -36 -32 -67 -68 -67c-37 0 -67 30 -67 67c0 36 31 68 67 68s68 -32 68 -68z" />
    <glyph glyph-name="afii62956" unicode="&#x67e;" horiz-adv-x="304" arabic-form="initial" 
d="M276 153c0 -78 -63 -158 -142 -158h-156v103h127c29 0 48 8 58 19v7h3c2 8 4 23 4 43v132h106v-146zM234 -85c36 0 68 -31 68 -67c0 -37 -31 -68 -68 -68s-67 31 -67 68c0 36 30 67 67 67zM151 -152c0 -36 -32 -68 -68 -68c-37 0 -67 31 -67 68c0 36 31 67 67 67
s68 -31 68 -67zM223 -295c0 -36 -32 -67 -68 -67c-37 0 -67 30 -67 67c0 36 31 68 67 68s68 -32 68 -68z" />
    <glyph glyph-name="afii52957" unicode="&#x67e;" horiz-adv-x="383" arabic-form="medial" 
d="M154 98c53 0 63 14 63 69v132h105v-132c0 -60 13 -68 76 -69h10v-103l-61 2l-29 4l-23 12l-23 19c-31 -24 -61 -37 -90 -37h-206v103h178zM283 -80c36 0 68 -31 68 -67c0 -37 -31 -68 -68 -68s-67 31 -67 68c0 36 30 67 67 67zM200 -147c0 -36 -32 -68 -68 -68
c-37 0 -67 31 -67 68c0 36 31 67 67 67s68 -31 68 -67zM272 -290c0 -36 -32 -67 -68 -67c-37 0 -67 30 -67 67c0 36 31 68 67 68s68 -32 68 -68z" />
    <glyph glyph-name="afii62961" unicode="&#x686;" horiz-adv-x="620" arabic-form="final" 
d="M640 -5c-77 1 -135 12 -161 68v1l-11 40l-180 -100c-83 -47 -121 -104 -121 -171c0 -48 19 -91 60 -130c42 -39 84 -57 129 -57h278l8 -104h-262c-99 0 -180 35 -243 107c-46 57 -69 119 -69 187v20l2 21c9 88 56 155 138 198l284 155c-15 23 -34 36 -57 41
c-24 4 -106 7 -244 7h-8l-16 101h232c126 0 200 -69 201 -194v-6l-85 -49c4 -13 14 -20 33 -25c20 -5 51 -7 92 -7h9v-103h-9zM484 -49c36 0 68 -31 68 -67c0 -37 -31 -68 -68 -68s-67 31 -67 68c0 36 30 67 67 67zM401 -116c0 -36 -32 -68 -68 -68c-37 0 -67 31 -67 68
c0 36 31 67 67 67s68 -31 68 -67zM473 -259c0 -36 -32 -67 -68 -67c-37 0 -67 30 -67 67c0 36 31 68 67 68s68 -32 68 -68z" />
    <glyph glyph-name="afii62959" unicode="&#x686;" horiz-adv-x="536" arabic-form="initial" 
d="M122 103h2c38 4 74 14 108 29c20 9 51 26 92 51h1l85 46c-10 20 -28 34 -59 42c-27 5 -107 7 -237 7h-9l-15 101h237c130 0 195 -65 196 -194v-6l-218 -124c-46 -26 -90 -43 -133 -50c-39 -7 -102 -10 -189 -10h-9v103h79c36 0 59 2 69 5zM367 -74c36 0 68 -31 68 -67
c0 -37 -31 -68 -68 -68s-67 31 -67 68c0 36 30 67 67 67zM284 -141c0 -36 -32 -68 -68 -68c-37 0 -67 31 -67 68c0 36 31 67 67 67s68 -31 68 -67zM356 -284c0 -36 -32 -67 -68 -67c-37 0 -67 30 -67 67c0 36 31 68 67 68s68 -32 68 -68z" />
    <glyph glyph-name="afii62960" unicode="&#x686;" horiz-adv-x="536" arabic-form="medial" 
d="M122 103h2c38 4 74 14 108 29c20 9 51 26 92 51h1l85 46c-10 20 -28 34 -59 42c-27 5 -107 7 -237 7h-9l-15 101h237c125 0 195 -71 196 -195v-6l-87 -48c2 -16 32 -32 111 -32h10v-103h-10c-83 0 -121 11 -148 65v1l-9 42c-56 -36 -117 -65 -184 -90h-1
c-45 -12 -119 -18 -222 -18h-9v103h79c36 0 59 2 69 5zM356 -74c36 0 68 -31 68 -67c0 -37 -31 -68 -68 -68s-67 31 -67 68c0 36 30 67 67 67zM273 -141c0 -36 -32 -68 -68 -68c-37 0 -67 31 -67 68c0 36 31 67 67 67s68 -31 68 -67zM345 -284c0 -36 -32 -67 -68 -67
c-37 0 -67 30 -67 67c0 36 31 68 67 68s68 -32 68 -68z" />
    <glyph glyph-name="afii62962" unicode="&#x698;" horiz-adv-x="476" arabic-form="final" 
d="M487 -5c-39 1 -69 14 -90 37c-2 -81 -27 -149 -74 -204h-1c-46 -46 -102 -70 -167 -70h-125l-18 102h134c37 0 72 12 103 38c30 26 45 57 45 95v306h102v-139c0 -39 25 -61 91 -62h10v-103h-10zM369 516c36 0 68 -32 68 -68c0 -37 -32 -67 -68 -67c-37 0 -67 30 -67 67
c0 36 31 68 67 68zM286 448c0 -36 -32 -67 -68 -67c-37 0 -67 30 -67 67c0 36 31 68 67 68s68 -32 68 -68zM358 591c0 -36 -32 -68 -68 -68s-67 31 -67 68c0 36 31 67 67 67s68 -31 68 -67z" />
    <glyph glyph-name="afii62964" unicode="&#x6a9;" horiz-adv-x="916" arabic-form="final" 
d="M935 -5c-66 1 -113 23 -147 63c-22 -43 -61 -63 -122 -63h-493c-81 0 -138 79 -138 158v146h104v-132c0 -55 11 -69 65 -69h456c32 0 42 9 42 29c0 10 -6 24 -20 41l-230 257l-18 96l371 143l16 -95l-271 -100l252 -285l67 -67c19 -12 40 -19 67 -19h9v-103h-10z" />
    <glyph glyph-name="afii52305" unicode="&#x6a9;" horiz-adv-x="438" arabic-form="initial" 
d="M368 37c-28 -28 -68 -42 -117 -42h-277v103h277c38 0 49 11 49 30c0 9 -5 22 -16 37l-249 260l-19 103l386 139l12 -100l-272 -100l236 -262c18 -23 28 -49 28 -79c0 -31 -13 -61 -38 -89z" />
    <glyph glyph-name="afii52306" unicode="&#x6a9;" horiz-adv-x="538" arabic-form="medial" 
d="M385 66c-22 -48 -47 -71 -119 -71h-285v103h275c34 0 44 10 44 30c0 9 -6 24 -20 40l-236 256l-15 111l379 135l16 -103l-273 -100l256 -283c38 -42 66 -67 81 -77c2 -2 14 -4 22 -7l43 -2v-103h-10c-71 1 -124 26 -158 71z" />
    <glyph glyph-name="afii62967" unicode="&#x6af;" horiz-adv-x="916" arabic-form="final" 
d="M682 168l-230 257l-18 101l371 138l16 -95l-271 -100l252 -285l67 -67c19 -12 40 -19 67 -19h9v-103h-10c-66 1 -113 23 -147 63c-22 -43 -61 -63 -122 -63h-493c-81 0 -138 79 -138 158v146h104v-132c0 -55 11 -69 65 -69h456c32 0 42 9 42 29c0 10 -6 24 -20 41z
M800 703l-372 -142l-10 63l379 140z" />
    <glyph glyph-name="afii62965" unicode="&#x6af;" horiz-adv-x="426" arabic-form="initial" 
d="M387 715l-365 -132l-5 58l368 130zM368 37c-28 -28 -68 -42 -117 -42h-277v103h277c38 0 49 11 49 30c0 9 -5 22 -16 37l-249 260l-19 110l385 135l13 -103l-272 -100l236 -262c18 -23 28 -49 28 -79c0 -31 -13 -61 -38 -89z" />
    <glyph glyph-name="afii62966" unicode="&#x6af;" horiz-adv-x="536" arabic-form="medial" 
d="M396 712l-362 -132l-7 50l364 129zM385 66c-22 -48 -47 -71 -119 -71h-285v103h275c34 0 44 10 44 30c0 9 -6 24 -20 40l-236 256l-15 111l379 135l16 -103l-273 -100l256 -283c38 -42 66 -67 81 -77c2 -2 14 -4 22 -7l43 -2v-103h-10c-71 1 -124 26 -158 71z" />
    <glyph glyph-name="uniFBA4" unicode="&#x6c0;" horiz-adv-x="421" arabic-form="isolated" 
d="M216 83c43 0 80 36 80 78c0 20 -5 35 -12 44l-73 76c-31 -31 -52 -54 -65 -71l-1 -1c-3 -1 -7 -14 -8 -17l-6 -30c0 -10 6 -26 20 -48l1 -3c17 -19 38 -28 64 -28zM214 -16c-99 0 -181 86 -181 185c0 35 10 71 31 106c11 11 21 26 31 39l43 42l-27 33l70 70l173 -182
c30 -38 45 -77 45 -120c0 -44 -19 -85 -55 -120s-81 -53 -130 -53zM207 607c11 0 48 9 76 23l22 -52l-197 -72l-15 51l40 15c-14 15 -20 29 -20 45c0 52 45 97 95 98c21 0 41 -9 58 -24l7 -5l-33 -47l-8 7c-8 7 -17 10 -28 10c-19 0 -33 -11 -33 -26c0 -14 14 -23 35 -23h1z
" />
    <glyph glyph-name="uniFBA5" unicode="&#x6c0;" horiz-adv-x="579" arabic-form="final" 
d="M240 83c41 0 85 38 85 77c0 16 -5 33 -15 50c-24 24 -48 47 -72 71c-33 -31 -54 -53 -64 -69s-14 -31 -14 -48c0 -16 6 -33 20 -52s33 -29 60 -29zM541 108c8 -8 31 -10 54 -10h9v-103h-9c-44 0 -73 6 -88 18c-10 5 -39 30 -94 80c-36 -71 -94 -109 -174 -109
c-50 0 -93 18 -129 53s-54 80 -54 132c0 35 12 70 36 106c12 19 39 48 72 81l-27 32l70 71l284 -302c22 -23 39 -40 49 -49h1zM232 592c11 0 48 9 76 23l22 -52l-197 -72l-15 51l40 15c-14 15 -20 29 -20 45c0 52 45 97 95 98c21 0 41 -9 58 -24l7 -5l-33 -47l-8 7
c-8 7 -17 10 -28 10c-19 0 -33 -11 -33 -26c0 -14 14 -23 35 -23h1z" />
    <glyph glyph-name="uniFBA6" unicode="&#x6c1;" horiz-adv-x="239" arabic-form="isolated" 
d="M221 83c43 0 80 36 80 78c0 20 -5 35 -12 44l-73 76c-31 -31 -52 -54 -65 -71l-1 -1c-3 -1 -7 -14 -8 -17l-6 -30c0 -10 6 -26 20 -48l1 -3c17 -19 38 -28 64 -28zM219 -16c-99 0 -181 86 -181 185c0 35 10 71 31 106c11 11 21 26 31 39l43 42l-27 33l70 70l173 -182
c30 -38 45 -77 45 -120c0 -44 -19 -85 -55 -120s-81 -53 -130 -53z" />
    <glyph glyph-name="afii62827" unicode="&#x6be;" horiz-adv-x="415" arabic-form="final" 
d="M280 141c-2 -30 -7 -47 -19 -66c23 15 45 23 69 23h105v-103h-77c-45 0 -86 -30 -86 -70c0 0 1 -13 1 -14l23 -100l-99 -30l-26 127l-3 19v1c0 28 11 55 29 82c-19 -10 -41 -15 -65 -15h-167v103h138c28 0 49 9 64 23c6 8 12 25 17 51l17 106l104 -18z" />
    <glyph glyph-name="uniFBE5" unicode="&#x6d0;" horiz-adv-x="502" arabic-form="final" 
d="M690 -5h-85l3 -40c0 -55 -22 -102 -65 -140c-42 -38 -90 -57 -144 -57h-146c-72 0 -131 28 -177 83l-1 1c-39 53 -58 117 -58 192v171h105v-209c0 -31 10 -60 32 -88h1c29 -32 68 -48 120 -48h120c30 0 55 9 78 26c21 16 32 40 32 74c0 13 -8 23 -39 28
c-27 5 -75 7 -144 7h-9l-9 103h386v-103z" />
    <glyph glyph-name="afii52364" unicode="&#x6cc;" horiz-adv-x="670" arabic-form="final" 
d="M690 -5h-85l3 -40c0 -55 -22 -102 -65 -140c-42 -38 -90 -57 -144 -57h-146c-72 0 -131 28 -177 83l-1 1c-39 53 -58 117 -58 192v171h105v-209c0 -31 10 -60 32 -88h1c29 -32 68 -48 120 -48h120c30 0 55 9 78 26c21 16 32 40 32 74c0 13 -8 23 -39 28
c-27 5 -75 7 -144 7h-9l-9 103h386v-103z" />
    <glyph glyph-name="uniFBFE" unicode="&#x6cc;" horiz-adv-x="304" arabic-form="initial" 
d="M276 153c0 -78 -63 -158 -142 -158h-156v103h127c29 0 48 8 58 19v7h3c2 8 4 23 4 43v132h106v-146zM80 -85c36 0 68 -32 68 -68c0 -31 -29 -67 -62 -67c-45 0 -74 28 -74 74c0 32 38 61 68 61zM223 -85c36 0 68 -32 68 -68c0 -31 -28 -67 -61 -67c-46 0 -75 28 -75 74
c0 33 37 61 68 61z" />
    <glyph glyph-name="afii62832" unicode="&#x6cc;" horiz-adv-x="383" arabic-form="medial" 
d="M154 98c53 0 63 14 63 69v132h105v-132c0 -60 13 -68 76 -69h10v-103l-61 2l-29 4l-23 12l-23 19c-31 -24 -61 -37 -90 -37h-206v103h178zM116 -83c36 0 68 -32 68 -68c0 -31 -29 -67 -62 -67c-45 0 -74 28 -74 74c0 32 38 61 68 61zM259 -83c36 0 68 -32 68 -68
c0 -31 -28 -67 -61 -67c-46 0 -75 28 -75 74c0 33 37 61 68 61z" />
    <glyph glyph-name="uniFC5D" unicode="&#xfc5d;" horiz-adv-x="670" arabic-form="isolated" 
d="M501 247c-31 0 -51 -15 -66 -46h-1c-9 -9 -10 -62 -10 -98c81 0 136 -8 168 -23c36 -19 53 -57 53 -110c0 -41 -6 -75 -19 -100v-2h-1c-16 -16 -23 -53 -52 -81c-45 -43 -101 -65 -164 -65h-144c-61 0 -116 26 -161 75s-66 107 -66 173v197h97v-209c0 -40 17 -74 52 -104
c30 -21 61 -31 96 -31h122c31 0 62 11 91 32c33 29 48 56 48 86c0 32 -11 48 -32 55c-21 6 -81 11 -174 11h-10v164c0 91 78 172 169 172h119l5 -96h-120zM240 297h-52v153h52v-153z" />
    <glyph glyph-name="afii62882" unicode="&#xfc5e;" arabic-form="isolated" 
d="M105 60c-1 -20 -4 -35 -15 -42h-2c-7 0 -21 -18 -40 -18h-2c-16 0 -32 7 -45 17c-11 -13 -24 -18 -45 -18c-40 0 -64 22 -64 62v58h48v-60c1 -6 4 -10 18 -10c12 0 16 4 16 10v60h48v-60c0 -8 3 -12 19 -12h5c9 0 9 1 9 8v64h50v-59zM-158 295c17 2 36 5 50 5
c40 0 64 -15 71 -48l25 15c-20 13 -34 32 -34 63c0 44 34 83 80 83c42 0 79 -35 79 -78v-3c0 -36 -14 -64 -42 -83v-1l-171 -96l-30 49l9 5c13 7 21 13 27 17c7 5 10 10 10 16c0 7 -3 8 -12 9h-3c-11 0 -25 -1 -42 -4l-10 -2zM59 330c0 13 -12 26 -25 26
c-14 0 -26 -12 -26 -26c0 -13 12 -25 26 -25s25 11 25 25z" />
    <glyph glyph-name="afii62883" unicode="&#xfc5f;" arabic-form="isolated" 
d="M106 234c-1 -20 -4 -35 -15 -42h-2c-7 0 -21 -18 -40 -18h-2c-16 0 -32 7 -45 17c-11 -13 -24 -18 -45 -18c-40 0 -64 22 -64 62v58h48v-60c1 -6 4 -10 18 -10c12 0 16 4 16 10v60h48v-60c0 -8 3 -12 19 -12h5c9 0 9 1 9 8v64h50v-59zM-124 37l233 61v-50l-233 -59v48z
M-124 111l233 60v-50l-233 -59v49z" />
    <glyph glyph-name="afii62884" unicode="&#xfc60;" arabic-form="isolated" 
d="M105 60c-1 -20 -4 -35 -15 -42h-2c-7 0 -21 -18 -40 -18h-2c-16 0 -32 7 -45 17c-11 -13 -24 -18 -45 -18c-40 0 -64 22 -64 62v58h48v-60c1 -6 4 -10 18 -10c12 0 16 4 16 10v60h48v-60c0 -8 3 -12 19 -12h5c9 0 9 1 9 8v64h50v-59zM-125 210l233 60v-50l-233 -59v49z
" />
    <glyph glyph-name="afii62885" unicode="&#xfc61;" arabic-form="isolated" 
d="M105 60c-1 -20 -4 -35 -15 -42h-2c-7 0 -21 -18 -40 -18h-2c-16 0 -32 7 -45 17c-11 -13 -24 -18 -45 -18c-40 0 -64 22 -64 62v58h48v-60c1 -6 4 -10 18 -10c12 0 16 4 16 10v60h48v-60c0 -8 3 -12 19 -12h5c9 0 9 1 9 8v64h50v-59zM-52 329c0 44 35 83 80 83
c42 0 79 -36 79 -78v-3c0 -36 -14 -64 -42 -83l-172 -97l-29 49l117 66c-23 14 -33 36 -33 63zM52 329c0 14 -11 26 -24 26c-14 0 -26 -13 -26 -26c0 -14 12 -25 26 -25s24 11 24 25z" />
    <glyph glyph-name="afii62886" unicode="&#xfc62;" arabic-form="isolated" 
d="M107 211c-1 -20 -4 -35 -15 -42h-2c-7 0 -21 -18 -40 -18h-2c-16 0 -32 7 -45 17c-11 -13 -24 -18 -45 -18c-40 0 -64 22 -64 62v58h48v-60c1 -6 4 -10 18 -10c12 0 16 4 16 10v60h48v-60c0 -8 3 -12 19 -12h5c9 0 9 1 9 8v64h50v-59zM-119 44l233 60v-50l-233 -59v49z
" />
    <glyph glyph-name="uniFC63" unicode="&#xfc63;" arabic-form="isolated" 
d="M105 60c-1 -20 -4 -35 -15 -42h-2c-7 0 -21 -18 -40 -18h-2c-16 0 -32 7 -45 17c-11 -13 -24 -18 -45 -18c-40 0 -64 22 -64 62v58h48v-60c1 -6 4 -10 18 -10c12 0 16 4 16 10v60h48v-60c0 -8 3 -12 19 -12h5c9 0 9 1 9 8v64h50v-59zM27 148h-52v153h52v-153z" />
    <glyph glyph-name="uniFCF2" unicode="&#xfcf2;" horiz-adv-x="243" arabic-form="medial" 
d="M224 260c-1 -20 -4 -35 -15 -42h-2c-7 0 -21 -18 -40 -18h-2c-16 0 -32 7 -45 17c-11 -13 -24 -18 -45 -18c-40 0 -64 22 -64 62v58h48v-60c1 -6 4 -10 18 -10c12 0 16 4 16 10v60h48v-60c0 -8 3 -12 19 -12h5c9 0 9 1 9 8v64h50v-59zM-7 398l233 60v-50l-233 -59v49z
M263 -5h-279v103h279v-103z" />
    <glyph glyph-name="uniFCF3" unicode="&#xfcf3;" horiz-adv-x="243" arabic-form="medial" 
d="M225 248c-1 -20 -4 -35 -15 -42h-2c-7 0 -21 -18 -40 -18h-2c-16 0 -32 7 -45 17c-11 -13 -24 -18 -45 -18c-40 0 -64 22 -64 62v58h48v-60c1 -6 4 -10 18 -10c12 0 16 4 16 10v60h48v-60c0 -8 3 -12 19 -12h5c9 0 9 1 9 8v64h50v-59zM78 524c0 44 35 83 80 83
c42 0 79 -36 79 -78v-3c0 -36 -14 -64 -42 -83l-172 -97l-29 49l117 66c-23 14 -33 36 -33 63zM182 524c0 14 -11 26 -24 26c-14 0 -26 -13 -26 -26c0 -14 12 -25 26 -25s24 11 24 25zM263 -5h-279v103h279v-103z" />
    <glyph glyph-name="uniFCF4" unicode="&#xfcf4;" horiz-adv-x="243" arabic-form="medial" 
d="M228 367c-1 -20 -4 -35 -15 -42h-2c-7 0 -21 -18 -40 -18h-2c-16 0 -32 7 -45 17c-11 -13 -24 -18 -45 -18c-40 0 -64 22 -64 62v58h48v-60c1 -6 4 -10 18 -10c12 0 16 4 16 10v60h48v-60c0 -8 3 -12 19 -12h5c9 0 9 1 9 8v64h50v-59zM1 205l233 60v-50l-233 -59v49z
M263 -5h-279v103h279v-103z" />
    <glyph glyph-name="uniFE71" unicode="&#xfe71;" horiz-adv-x="243" arabic-form="medial" 
d="M9 236l233 60v-50l-233 -59v49zM9 310l233 60v-50l-233 -59v49zM263 -5h-279v103h279v-103z" />
    <glyph glyph-name="uniFE77" unicode="&#xfe77;" horiz-adv-x="243" arabic-form="medial" 
d="M2 258l233 60v-50l-233 -59v49zM263 -5h-279v103h279v-103z" />
    <glyph glyph-name="uniFE79" unicode="&#xfe79;" horiz-adv-x="243" arabic-form="medial" 
d="M81 392c0 44 35 83 80 83c42 0 79 -36 79 -78v-3c0 -36 -14 -64 -42 -83l-172 -97l-29 49l117 66c-23 14 -33 36 -33 63zM185 392c0 14 -11 26 -24 26c-14 0 -26 -13 -26 -26c0 -14 12 -25 26 -25s24 11 24 25zM263 -5h-279v103h279v-103z" />
    <glyph glyph-name="uniFE7B" unicode="&#xfe7b;" horiz-adv-x="243" arabic-form="medial" 
d="M3 -171l233 60v-50l-233 -59v49zM263 -5h-279v103h279v-103z" />
    <glyph glyph-name="uniFE7D" unicode="&#xfe7d;" horiz-adv-x="243" arabic-form="medial" 
d="M239 309c-1 -20 -4 -35 -15 -42h-2c-7 0 -21 -18 -40 -18h-2c-16 0 -32 7 -45 17c-11 -13 -24 -18 -45 -18c-40 0 -64 22 -64 62v58h48v-60c1 -6 4 -10 18 -10c12 0 16 4 16 10v60h48v-60c0 -8 3 -12 19 -12h5c9 0 9 1 9 8v64h50v-59zM263 -5h-279v103h279v-103z" />
    <glyph glyph-name="uniFE7F" unicode="&#xfe7f;" horiz-adv-x="243" arabic-form="medial" 
d="M29 320c0 55 41 104 97 104h4c56 0 97 -50 97 -104c0 -56 -43 -103 -100 -103s-98 47 -98 103zM175 319c0 26 -22 50 -47 50c-23 0 -45 -25 -45 -50c0 -26 20 -50 45 -50s47 24 47 50zM263 -5h-279v103h279v-103z" />
    <glyph glyph-name="afii52399" unicode="&#x621;" horiz-adv-x="390" arabic-form="isolated" 
d="M251 110c15 0 52 15 86 30l31 -65l-232 -97l-22 62l72 30c-22 16 -32 38 -32 73v1c3 52 48 98 103 98c29 0 52 -12 73 -30l-29 -61l-9 6c-14 9 -26 12 -33 12c-19 0 -30 -11 -30 -29c0 -17 9 -30 22 -30z" />
    <glyph glyph-name="afii62753" unicode="&#x622;" horiz-adv-x="268" arabic-form="final" 
d="M284 650h-203c-23 0 -38 -6 -48 -16c-12 -12 -25 -31 -36 -53l-81 30c20 46 40 86 58 99c29 24 52 32 102 33h208v-93zM278 -5c-125 0 -199 34 -199 150v448h103v-409c0 -49 2 -73 31 -81c21 -5 33 -4 65 -5h10v-103h-10z" />
    <glyph glyph-name="afii62754" unicode="&#x623;" horiz-adv-x="268" arabic-form="final" 
d="M144 731c11 0 48 9 76 23l22 -52l-197 -72l-15 51l40 15c-14 15 -20 29 -20 45c0 52 45 97 95 98c21 0 41 -9 58 -24l7 -5l-33 -47l-8 7c-8 7 -17 10 -28 10c-19 0 -33 -11 -33 -26c0 -14 14 -23 35 -23h1zM278 -5c-125 0 -199 34 -199 150v448h103v-409
c0 -49 2 -73 31 -81c21 -5 33 -4 65 -5h10v-103h-10z" />
    <glyph glyph-name="afii62755" unicode="&#x624;" horiz-adv-x="464" arabic-form="final" 
d="M312 -5c-146 1 -242 38 -242 186c0 76 19 133 59 168c26 21 65 30 114 30c72 0 125 -31 154 -93c16 -39 23 -101 23 -188h64v-103h-64c-2 -95 -55 -165 -119 -203c-38 -22 -79 -34 -126 -34h-125l-15 102h125c46 0 82 14 110 42s41 59 42 93zM317 183c0 55 -28 94 -79 94
c-41 0 -63 -26 -63 -91c0 -37 11 -59 28 -70s55 -18 114 -18v85zM236 534c11 0 48 9 76 23l22 -52l-197 -72l-15 51l40 15c-14 15 -20 29 -20 45c0 52 45 97 95 98c21 0 41 -9 58 -24l7 -5l-33 -47l-8 7c-8 7 -17 10 -28 10c-19 0 -33 -11 -33 -26c0 -14 14 -23 35 -23h1z
" />
    <glyph glyph-name="afii62756" unicode="&#x625;" horiz-adv-x="268" arabic-form="final" 
d="M278 -5c-125 0 -199 34 -199 150v448h103v-409c0 -49 2 -73 31 -81c21 -5 33 -4 65 -5h10v-103h-10zM155 -163c11 0 48 9 76 23l22 -52l-197 -72l-15 51l40 15c-14 15 -20 29 -20 45c0 52 45 97 95 98c21 0 41 -9 58 -24l7 -5l-33 -47l-8 7c-8 7 -17 10 -28 10
c-19 0 -33 -11 -33 -26c0 -14 14 -23 35 -23h1z" />
    <glyph glyph-name="afii62759" unicode="&#x626;" horiz-adv-x="670" arabic-form="final" 
d="M690 -5h-85l3 -40c0 -55 -22 -102 -65 -140c-42 -38 -90 -57 -144 -57h-146c-72 0 -131 28 -177 83l-1 1c-39 53 -58 117 -58 192v171h105v-209c0 -31 10 -60 32 -88h1c29 -32 68 -48 120 -48h120c30 0 55 9 78 26c21 16 32 40 32 74c0 13 -8 23 -39 28
c-27 5 -75 7 -144 7h-9l-9 103h386v-103zM271 390c11 0 48 9 76 23l22 -52l-197 -72l-15 51l40 15c-14 15 -20 29 -20 45c0 52 45 97 95 98c21 0 41 -9 58 -24l7 -5l-33 -47l-8 7c-8 7 -17 10 -28 10c-19 0 -33 -11 -33 -26c0 -14 14 -23 35 -23h1z" />
    <glyph glyph-name="afii62757" unicode="&#x626;" horiz-adv-x="304" arabic-form="initial" 
d="M276 153c0 -78 -63 -158 -142 -158h-156v103h127c29 0 48 8 58 19v7h3c2 8 4 23 4 43v132h106v-146zM193 470c11 0 48 9 76 23l22 -52l-197 -72l-15 51l40 15c-14 15 -20 29 -20 45c0 52 45 97 95 98c21 0 41 -9 58 -24l7 -5l-33 -47l-8 7c-8 7 -17 10 -28 10
c-19 0 -33 -11 -33 -26c0 -14 14 -23 35 -23h1z" />
    <glyph glyph-name="afii62758" unicode="&#x626;" horiz-adv-x="383" arabic-form="medial" 
d="M216 461c11 0 48 9 76 23l22 -52l-197 -72l-15 51l40 15c-14 15 -20 29 -20 45c0 52 45 97 95 98c21 0 41 -9 58 -24l7 -5l-33 -47l-8 7c-8 7 -17 10 -28 10c-19 0 -33 -11 -33 -26c0 -14 14 -23 35 -23h1zM154 98c53 0 63 14 63 69v132h105v-132c0 -60 13 -68 76 -69h10
v-103l-61 2l-29 4l-23 12l-23 19c-31 -24 -61 -37 -90 -37h-206v103h178z" />
    <glyph glyph-name="afii57415" unicode="&#x627;" horiz-adv-x="232" arabic-form="isolated" 
d="M201 -5h-103v611h103v-611z" />
    <glyph glyph-name="afii62760" unicode="&#x627;" horiz-adv-x="268" arabic-form="final" 
d="M278 -5c-125 0 -199 34 -199 150v448h103v-409c0 -49 2 -73 31 -81c21 -5 33 -4 65 -5h10v-103h-10z" />
    <glyph glyph-name="afii62763" unicode="&#x628;" horiz-adv-x="890" arabic-form="final" 
d="M640 98c30 0 45 4 51 10h2c4 0 13 32 13 59v132h104v-132c0 -55 30 -68 93 -69h10v-103l-64 3l-41 6c-19 6 -36 16 -49 28c-31 -25 -60 -37 -90 -37h-493c-80 0 -138 81 -138 158v146h103v-132c0 -54 12 -69 64 -69h435zM402 -84c31 0 67 -28 67 -61
c0 -34 -23 -74 -61 -74c-46 0 -74 28 -74 74c0 32 38 61 68 61z" />
    <glyph glyph-name="afii62761" unicode="&#x628;" horiz-adv-x="304" arabic-form="initial" 
d="M161 -84c31 0 67 -28 67 -61c0 -34 -23 -74 -61 -74c-46 0 -74 28 -74 74c0 32 38 61 68 61zM276 153c0 -78 -63 -158 -142 -158h-156v103h127c29 0 48 8 58 19v7h3c2 8 4 23 4 43v132h106v-146z" />
    <glyph glyph-name="afii62762" unicode="&#x628;" horiz-adv-x="383" arabic-form="medial" 
d="M220 -86c31 0 67 -28 67 -61c0 -34 -23 -74 -61 -74c-46 0 -74 28 -74 74c0 32 38 61 68 61zM154 98c53 0 63 14 63 69v132h105v-132c0 -60 13 -68 76 -69h10v-103l-61 2l-29 4l-23 12l-23 19c-31 -24 -61 -37 -90 -37h-206v103h178z" />
    <glyph glyph-name="afii62764" unicode="&#x629;" horiz-adv-x="579" arabic-form="final" 
d="M240 83c41 0 85 38 85 77c0 16 -5 33 -15 50c-24 24 -48 47 -72 71c-33 -31 -54 -53 -64 -69s-14 -31 -14 -48c0 -16 6 -33 20 -52s33 -29 60 -29zM541 108c8 -8 31 -10 54 -10h9v-103h-9c-44 0 -73 6 -88 18c-10 5 -39 30 -94 80c-36 -71 -94 -109 -174 -109
c-50 0 -93 18 -129 53s-54 80 -54 132c0 35 12 70 36 106c12 19 39 48 72 81l-27 32l70 71l284 -302c22 -23 39 -40 49 -49h1zM115 647c36 0 68 -32 68 -68c0 -31 -29 -67 -62 -67c-45 0 -74 28 -74 74c0 32 38 61 68 61zM258 647c36 0 68 -32 68 -68c0 -31 -28 -67 -61 -67
c-46 0 -75 28 -75 74c0 33 37 61 68 61z" />
    <glyph glyph-name="afii62767" unicode="&#x62a;" horiz-adv-x="890" arabic-form="final" 
d="M640 98c30 0 45 4 51 10h2c4 0 13 32 13 59v132h104v-132c0 -55 30 -68 93 -69h10v-103l-64 3l-41 6c-19 6 -36 16 -49 28c-31 -25 -60 -37 -90 -37h-493c-80 0 -138 81 -138 158v146h103v-132c0 -54 12 -69 64 -69h435zM362 511c36 0 68 -32 68 -68
c0 -31 -29 -67 -62 -67c-45 0 -74 28 -74 74c0 32 38 61 68 61zM505 511c36 0 68 -32 68 -68c0 -31 -28 -67 -61 -67c-46 0 -75 28 -75 74c0 33 37 61 68 61z" />
    <glyph glyph-name="afii62765" unicode="&#x62a;" horiz-adv-x="304" arabic-form="initial" 
d="M276 153c0 -78 -63 -158 -142 -158h-156v103h127c29 0 48 8 58 19v7h3c2 8 4 23 4 43v132h106v-146zM72 522c36 0 68 -32 68 -68c0 -31 -29 -67 -62 -67c-45 0 -74 28 -74 74c0 32 38 61 68 61zM215 522c36 0 68 -32 68 -68c0 -31 -28 -67 -61 -67c-46 0 -75 28 -75 74
c0 33 37 61 68 61z" />
    <glyph glyph-name="afii62766" unicode="&#x62a;" horiz-adv-x="383" arabic-form="medial" 
d="M154 98c53 0 63 14 63 69v132h105v-132c0 -60 13 -68 76 -69h10v-103l-61 2l-29 4l-23 12l-23 19c-31 -24 -61 -37 -90 -37h-206v103h178zM104 511c36 0 68 -32 68 -68c0 -31 -29 -67 -62 -67c-45 0 -74 28 -74 74c0 32 38 61 68 61zM247 511c36 0 68 -32 68 -68
c0 -31 -28 -67 -61 -67c-46 0 -75 28 -75 74c0 33 37 61 68 61z" />
    <glyph glyph-name="afii62770" unicode="&#x62b;" horiz-adv-x="890" arabic-form="final" 
d="M640 98c30 0 45 4 51 10h2c4 0 13 32 13 59v132h104v-132c0 -55 30 -68 93 -69h10v-103l-64 3l-41 6c-19 6 -36 16 -49 28c-31 -25 -60 -37 -90 -37h-493c-80 0 -138 81 -138 158v146h103v-132c0 -54 12 -69 64 -69h435zM499 510c36 0 68 -32 68 -68
c0 -37 -32 -67 -68 -67c-37 0 -67 30 -67 67c0 36 31 68 67 68zM416 442c0 -36 -32 -67 -68 -67c-37 0 -67 30 -67 67c0 36 31 68 67 68s68 -32 68 -68zM488 585c0 -36 -32 -68 -68 -68s-67 31 -67 68c0 36 31 67 67 67s68 -31 68 -67z" />
    <glyph glyph-name="afii62768" unicode="&#x62b;" horiz-adv-x="304" arabic-form="initial" 
d="M276 153c0 -78 -63 -158 -142 -158h-156v103h127c29 0 48 8 58 19v7h3c2 8 4 23 4 43v132h106v-146zM215 521c36 0 68 -32 68 -68c0 -37 -32 -67 -68 -67c-37 0 -67 30 -67 67c0 36 31 68 67 68zM132 453c0 -36 -32 -67 -68 -67c-37 0 -67 30 -67 67c0 36 31 68 67 68
s68 -32 68 -68zM204 596c0 -36 -32 -68 -68 -68s-67 31 -67 68c0 36 31 67 67 67s68 -31 68 -67z" />
    <glyph glyph-name="afii62769" unicode="&#x62b;" horiz-adv-x="383" arabic-form="medial" 
d="M154 98c53 0 63 14 63 69v132h105v-132c0 -60 13 -68 76 -69h10v-103l-61 2l-29 4l-23 12l-23 19c-31 -24 -61 -37 -90 -37h-206v103h178zM282 510c36 0 68 -32 68 -68c0 -37 -32 -67 -68 -67c-37 0 -67 30 -67 67c0 36 31 68 67 68zM199 442c0 -36 -32 -67 -68 -67
c-37 0 -67 30 -67 67c0 36 31 68 67 68s68 -32 68 -68zM271 585c0 -36 -32 -68 -68 -68s-67 31 -67 68c0 36 31 67 67 67s68 -31 68 -67z" />
    <glyph glyph-name="afii62773" unicode="&#x62c;" horiz-adv-x="620" arabic-form="final" 
d="M394 -107c31 0 67 -28 67 -61c0 -34 -23 -74 -61 -74c-46 0 -74 28 -74 74c0 32 38 61 68 61zM640 -5c-77 1 -135 12 -161 68v1l-11 40l-180 -100c-83 -47 -121 -104 -121 -171c0 -48 19 -91 60 -130c42 -39 84 -57 129 -57h278l8 -104h-262c-99 0 -180 35 -243 107
c-46 57 -69 119 -69 187v20l2 21c9 88 56 155 138 198l284 155c-15 23 -34 36 -57 41c-24 4 -106 7 -244 7h-8l-16 101h232c126 0 200 -69 201 -194v-6l-85 -49c4 -13 14 -20 33 -25c20 -5 51 -7 92 -7h9v-103h-9z" />
    <glyph glyph-name="afii62771" unicode="&#x62c;" horiz-adv-x="536" arabic-form="initial" 
d="M122 103h2c38 4 74 14 108 29c20 9 51 26 92 51h1l85 46c-10 20 -28 34 -59 42c-27 5 -107 7 -237 7h-9l-15 101h237c130 0 195 -65 196 -194v-6l-218 -124c-46 -26 -90 -43 -133 -50c-39 -7 -102 -10 -189 -10h-9v103h79c36 0 59 2 69 5zM332 -74c31 0 67 -28 67 -61
c0 -34 -23 -74 -61 -74c-46 0 -74 28 -74 74c0 32 38 61 68 61z" />
    <glyph glyph-name="afii62772" unicode="&#x62c;" horiz-adv-x="536" arabic-form="medial" 
d="M122 103h2c38 4 74 14 108 29c20 9 51 26 92 51h1l85 46c-10 20 -28 34 -59 42c-27 5 -107 7 -237 7h-9l-15 101h237c125 0 195 -71 196 -195v-6l-87 -48c2 -16 32 -32 111 -32h10v-103h-10c-83 0 -121 11 -148 65v1l-9 42c-56 -36 -117 -65 -184 -90h-1
c-45 -12 -119 -18 -222 -18h-9v103h79c36 0 59 2 69 5zM290 -83c31 0 67 -28 67 -61c0 -34 -23 -74 -61 -74c-46 0 -74 28 -74 74c0 32 38 61 68 61z" />
    <glyph glyph-name="afii62776" unicode="&#x62d;" horiz-adv-x="620" arabic-form="final" 
d="M640 -5c-77 1 -135 12 -161 68v1l-11 40l-180 -100c-83 -47 -121 -104 -121 -171c0 -48 19 -91 60 -130c42 -39 84 -57 129 -57h278l8 -104h-262c-99 0 -180 35 -243 107c-46 57 -69 119 -69 187v20l2 21c9 88 56 155 138 198l284 155c-15 23 -34 36 -57 41
c-24 4 -106 7 -244 7h-8l-16 101h232c126 0 200 -69 201 -194v-6l-85 -49c4 -13 14 -20 33 -25c20 -5 51 -7 92 -7h9v-103h-9z" />
    <glyph glyph-name="afii62774" unicode="&#x62d;" horiz-adv-x="536" arabic-form="initial" 
d="M122 103h2c38 4 74 14 108 29c20 9 51 26 92 51h1l85 46c-10 20 -28 34 -59 42c-27 5 -107 7 -237 7h-9l-15 101h237c130 0 195 -65 196 -194v-6l-218 -124c-46 -26 -90 -43 -133 -50c-39 -7 -102 -10 -189 -10h-9v103h79c36 0 59 2 69 5z" />
    <glyph glyph-name="afii62775" unicode="&#x62d;" horiz-adv-x="536" arabic-form="medial" 
d="M122 103h2c38 4 74 14 108 29c20 9 51 26 92 51h1l85 46c-10 20 -28 34 -59 42c-27 5 -107 7 -237 7h-9l-15 101h237c125 0 195 -71 196 -195v-6l-87 -48c2 -16 32 -32 111 -32h10v-103h-10c-83 0 -121 11 -148 65v1l-9 42c-56 -36 -117 -65 -184 -90h-1
c-45 -12 -119 -18 -222 -18h-9v103h79c36 0 59 2 69 5z" />
    <glyph glyph-name="afii62779" unicode="&#x62e;" horiz-adv-x="620" arabic-form="final" 
d="M640 -5c-77 1 -135 12 -161 68v1l-11 40l-180 -100c-83 -47 -121 -104 -121 -171c0 -48 19 -91 60 -130c42 -39 84 -57 129 -57h278l8 -104h-262c-99 0 -180 35 -243 107c-46 57 -69 119 -69 187v20l2 21c9 88 56 155 138 198l284 155c-15 23 -34 36 -57 41
c-24 4 -106 7 -244 7h-8l-16 101h232c126 0 200 -69 201 -194v-6l-85 -49c4 -13 14 -20 33 -25c20 -5 51 -7 92 -7h9v-103h-9zM340 590c31 0 67 -28 67 -61c0 -34 -23 -74 -61 -74c-46 0 -74 28 -74 74c0 32 38 61 68 61z" />
    <glyph glyph-name="afii62777" unicode="&#x62e;" horiz-adv-x="536" arabic-form="initial" 
d="M122 103h2c38 4 74 14 108 29c20 9 51 26 92 51h1l85 46c-10 20 -28 34 -59 42c-27 5 -107 7 -237 7h-9l-15 101h237c130 0 195 -65 196 -194v-6l-218 -124c-46 -26 -90 -43 -133 -50c-39 -7 -102 -10 -189 -10h-9v103h79c36 0 59 2 69 5zM250 589c31 0 67 -28 67 -61
c0 -34 -23 -74 -61 -74c-46 0 -74 28 -74 74c0 32 38 61 68 61z" />
    <glyph glyph-name="afii62778" unicode="&#x62e;" horiz-adv-x="536" arabic-form="medial" 
d="M122 103h2c38 4 74 14 108 29c20 9 51 26 92 51h1l85 46c-10 20 -28 34 -59 42c-27 5 -107 7 -237 7h-9l-15 101h237c125 0 195 -71 196 -195v-6l-87 -48c2 -16 32 -32 111 -32h10v-103h-10c-83 0 -121 11 -148 65v1l-9 42c-56 -36 -117 -65 -184 -90h-1
c-45 -12 -119 -18 -222 -18h-9v103h79c36 0 59 2 69 5zM259 579c31 0 67 -28 67 -61c0 -34 -23 -74 -61 -74c-46 0 -74 28 -74 74c0 32 38 61 68 61z" />
    <glyph glyph-name="afii62780" unicode="&#x62f;" horiz-adv-x="643" arabic-form="final" 
d="M609 -5c-36 0 -74 23 -116 63c-9 -14 -21 -28 -37 -42h-1l-1 -1c-22 -14 -51 -20 -89 -20h-292l-14 103h301c38 0 49 11 49 30c0 13 -5 24 -15 33l-213 227l69 71l285 -302c29 -30 49 -49 57 -52c7 -4 27 -7 57 -7h10v-103h-50z" />
    <glyph glyph-name="afii62781" unicode="&#x630;" horiz-adv-x="643" arabic-form="final" 
d="M609 -5c-36 0 -74 23 -116 63c-9 -14 -21 -28 -37 -42h-1l-1 -1c-22 -14 -51 -20 -89 -20h-292l-14 103h301c38 0 49 11 49 30c0 13 -5 24 -15 33l-213 227l69 71l285 -302c29 -30 49 -49 57 -52c7 -4 27 -7 57 -7h10v-103h-50zM214 643c31 0 67 -28 67 -61
c0 -34 -23 -74 -61 -74c-46 0 -74 28 -74 74c0 32 38 61 68 61z" />
    <glyph glyph-name="afii62782" unicode="&#x631;" horiz-adv-x="476" arabic-form="final" 
d="M487 -5c-39 1 -69 14 -90 37c-2 -81 -27 -149 -74 -204h-1c-46 -46 -102 -70 -167 -70h-125l-18 102h134c37 0 72 12 103 38c30 26 45 57 45 95v306h102v-139c0 -39 25 -61 91 -62h10v-103h-10z" />
    <glyph glyph-name="afii62783" unicode="&#x632;" horiz-adv-x="476" arabic-form="final" 
d="M487 -5c-39 1 -69 14 -90 37c-2 -81 -27 -149 -74 -204h-1c-46 -46 -102 -70 -167 -70h-125l-18 102h134c37 0 72 12 103 38c30 26 45 57 45 95v306h102v-139c0 -39 25 -61 91 -62h10v-103h-10zM320 518c31 0 67 -28 67 -61c0 -34 -23 -74 -61 -74c-46 0 -74 28 -74 74
c0 32 38 61 68 61z" />
    <glyph glyph-name="afii62786" unicode="&#x633;" horiz-adv-x="1195" arabic-form="final" 
d="M875 152c0 -37 26 -54 69 -54c47 0 66 18 66 57v144h101v-146c0 -19 9 -34 30 -47l30 -6l47 -2v-103l-43 2c-13 0 -23 1 -30 5c-30 15 -56 16 -82 43c-32 -35 -73 -52 -123 -52c-45 0 -86 18 -121 50c-35 -32 -74 -49 -117 -49c-24 0 -46 10 -66 29
c-2 -76 -24 -138 -68 -187c-45 -51 -101 -78 -167 -78h-148c-62 0 -117 25 -164 74s-70 107 -70 174v199h103v-204c0 -78 65 -141 144 -141h122c83 0 145 59 145 141v298h103v-152c0 -25 33 -49 64 -49c51 0 70 16 70 48v153h105v-147z" />
    <glyph glyph-name="afii62784" unicode="&#x633;" horiz-adv-x="756" arabic-form="initial" 
d="M728 150c0 -97 -71 -153 -170 -153c-40 0 -79 17 -120 50c-41 -33 -81 -49 -121 -49c-37 0 -75 17 -117 50c-25 -30 -54 -53 -110 -53h-116v103h116c48 0 63 22 63 74v127h99v-126c0 -44 26 -77 67 -77c48 0 71 25 71 75v128h100v-131c0 -45 27 -72 69 -72
c46 0 68 24 68 71v132h101v-149z" />
    <glyph glyph-name="afii62785" unicode="&#x633;" horiz-adv-x="813" arabic-form="medial" 
d="M670 45c-32 -33 -69 -53 -117 -53c-41 0 -82 19 -119 54c-38 -36 -80 -54 -126 -54c-43 0 -79 19 -107 52c-21 -26 -49 -50 -96 -50l-135 1v103h92c67 0 84 11 84 77v124h102v-123c0 -40 28 -80 60 -80c51 0 74 23 74 75v128h102v-126c0 -39 34 -77 69 -77
c47 0 67 25 67 75v128h103v-149c0 -25 17 -42 59 -50l48 -2v-103l-43 2c-47 2 -87 18 -117 48z" />
    <glyph glyph-name="afii62789" unicode="&#x634;" horiz-adv-x="1195" arabic-form="final" 
d="M875 152c0 -37 26 -54 69 -54c47 0 66 18 66 57v144h101v-146c0 -19 9 -34 30 -47l30 -6l47 -2v-103l-43 2c-13 0 -23 1 -30 5c-30 15 -56 16 -82 43c-32 -35 -73 -52 -123 -52c-45 0 -86 18 -121 50c-35 -32 -74 -49 -117 -49c-24 0 -46 10 -66 29
c-2 -76 -24 -138 -68 -187c-45 -51 -101 -78 -167 -78h-148c-62 0 -117 25 -164 74s-70 107 -70 174v199h103v-204c0 -78 65 -141 144 -141h122c83 0 145 59 145 141v298h103v-152c0 -25 33 -49 64 -49c51 0 70 16 70 48v153h105v-147zM904 517c36 0 68 -32 68 -68
c0 -37 -32 -67 -68 -67c-37 0 -67 30 -67 67c0 36 31 68 67 68zM821 449c0 -36 -32 -67 -68 -67c-37 0 -67 30 -67 67c0 36 31 68 67 68s68 -32 68 -68zM893 592c0 -36 -32 -68 -68 -68s-67 31 -67 68c0 36 31 67 67 67s68 -31 68 -67z" />
    <glyph glyph-name="afii62787" unicode="&#x634;" horiz-adv-x="756" arabic-form="initial" 
d="M728 150c0 -97 -71 -153 -170 -153c-40 0 -79 17 -120 50c-41 -33 -81 -49 -121 -49c-37 0 -75 17 -117 50c-25 -30 -54 -53 -110 -53h-116v103h116c48 0 63 22 63 74v127h99v-126c0 -44 26 -77 67 -77c48 0 71 25 71 75v128h100v-131c0 -45 27 -72 69 -72
c46 0 68 24 68 71v132h101v-149zM542 522c36 0 68 -32 68 -68c0 -37 -32 -67 -68 -67c-37 0 -67 30 -67 67c0 36 31 68 67 68zM459 454c0 -36 -32 -67 -68 -67c-37 0 -67 30 -67 67c0 36 31 68 67 68s68 -32 68 -68zM531 597c0 -36 -32 -68 -68 -68s-67 31 -67 68
c0 36 31 67 67 67s68 -31 68 -67z" />
    <glyph glyph-name="afii62788" unicode="&#x634;" horiz-adv-x="813" arabic-form="medial" 
d="M670 45c-32 -33 -69 -53 -117 -53c-41 0 -82 19 -119 54c-38 -36 -80 -54 -126 -54c-43 0 -79 19 -107 52c-21 -26 -49 -50 -96 -50l-135 1v103h92c67 0 84 11 84 77v124h102v-123c0 -40 28 -80 60 -80c51 0 74 23 74 75v128h102v-126c0 -39 34 -77 69 -77
c47 0 67 25 67 75v128h103v-149c0 -25 17 -42 59 -50l48 -2v-103l-43 2c-47 2 -87 18 -117 48zM511 511c36 0 68 -32 68 -68c0 -37 -32 -67 -68 -67c-37 0 -67 30 -67 67c0 36 31 68 67 68zM428 443c0 -36 -32 -67 -68 -67c-37 0 -67 30 -67 67c0 36 31 68 67 68
s68 -32 68 -68zM500 586c0 -36 -32 -68 -68 -68s-67 31 -67 68c0 36 31 67 67 67s68 -31 68 -67z" />
    <glyph glyph-name="afii62792" unicode="&#x635;" horiz-adv-x="1172" arabic-form="final" 
d="M1000 275c-27 0 -58 -17 -91 -57v-1c-22 -24 -50 -64 -80 -119h175c29 0 46 23 46 86c0 40 -9 67 -26 84c-3 2 -13 5 -24 7zM126 -7c0 -68 70 -133 139 -133h132c34 0 66 15 97 46s45 60 45 87v306h103v-144c0 -37 23 -56 82 -57c73 185 158 282 259 282
c71 0 126 -46 151 -95c15 -31 22 -62 22 -94c0 -29 -5 -60 -14 -93h52v-103h-430c-58 0 -100 11 -120 37c-3 -78 -24 -141 -59 -189c-37 -50 -99 -85 -182 -85h-145c-67 0 -123 27 -166 77c-36 43 -65 106 -65 182v188h99v-212z" />
    <glyph glyph-name="afii62790" unicode="&#x635;" horiz-adv-x="771" arabic-form="initial" 
d="M604 275c-23 0 -53 -18 -91 -58c-26 -28 -54 -69 -80 -119h175c31 0 49 23 49 86c0 38 -10 65 -28 84c-3 2 -14 5 -25 7zM83 98c43 0 61 22 61 66v135h102v-126c0 -51 25 -74 84 -75c14 24 115 203 117 206c45 49 93 75 145 75c21 0 45 -8 73 -23c62 -35 94 -94 94 -174
c0 -48 -20 -135 -51 -158c-24 -20 -63 -29 -117 -29h-239c-67 0 -108 28 -133 72c-38 -47 -80 -72 -128 -72h-117v103h109z" />
    <glyph glyph-name="afii62791" unicode="&#x635;" horiz-adv-x="813" arabic-form="medial" 
d="M604 275c-23 0 -53 -18 -91 -58c-26 -28 -54 -69 -80 -119h175c31 0 49 23 49 86c0 38 -10 65 -28 84c-3 2 -14 5 -25 7zM83 98c43 0 61 22 61 66v135h102v-126c0 -51 25 -74 84 -75c14 24 115 203 117 206c45 49 93 75 145 75c25 0 50 -8 76 -23c61 -36 91 -95 91 -174
c0 -22 -4 -50 -12 -84h83v-103h-478c-67 0 -108 28 -133 72c-38 -47 -80 -72 -128 -72h-117v103h109z" />
    <glyph glyph-name="afii62795" unicode="&#x636;" horiz-adv-x="1172" arabic-form="final" 
d="M1000 275c-27 0 -58 -17 -91 -57v-1c-22 -24 -50 -64 -80 -119h175c29 0 46 23 46 86c0 40 -9 67 -26 84c-3 2 -13 5 -24 7zM126 -7c0 -68 70 -133 139 -133h132c34 0 66 15 97 46s45 60 45 87v306h103v-144c0 -37 23 -56 82 -57c73 185 158 282 259 282
c71 0 126 -46 151 -95c15 -31 22 -62 22 -94c0 -29 -5 -60 -14 -93h52v-103h-430c-58 0 -100 11 -120 37c-3 -78 -24 -141 -59 -189c-37 -50 -99 -85 -182 -85h-145c-67 0 -123 27 -166 77c-36 43 -65 106 -65 182v188h99v-212zM732 559c31 0 67 -28 67 -61
c0 -34 -23 -74 -61 -74c-46 0 -74 28 -74 74c0 32 38 61 68 61z" />
    <glyph glyph-name="afii62793" unicode="&#x636;" horiz-adv-x="771" arabic-form="initial" 
d="M604 275c-23 0 -53 -18 -91 -58c-26 -28 -54 -69 -80 -119h175c31 0 49 23 49 86c0 38 -10 65 -28 84c-3 2 -14 5 -25 7zM83 98c43 0 61 22 61 66v135h102v-126c0 -51 25 -74 84 -75c14 24 115 203 117 206c45 49 93 75 145 75c21 0 45 -8 73 -23c62 -35 94 -94 94 -174
c0 -48 -20 -135 -51 -158c-24 -20 -63 -29 -117 -29h-239c-67 0 -108 28 -133 72c-38 -47 -80 -72 -128 -72h-117v103h109zM350 579c31 0 67 -28 67 -61c0 -34 -23 -74 -61 -74c-46 0 -74 28 -74 74c0 32 38 61 68 61z" />
    <glyph glyph-name="afii62794" unicode="&#x636;" horiz-adv-x="813" arabic-form="medial" 
d="M604 275c-23 0 -53 -18 -91 -58c-26 -28 -54 -69 -80 -119h175c31 0 49 23 49 86c0 38 -10 65 -28 84c-3 2 -14 5 -25 7zM83 98c43 0 61 22 61 66v135h102v-126c0 -51 25 -74 84 -75c14 24 115 203 117 206c45 49 93 75 145 75c25 0 50 -8 76 -23c61 -36 91 -95 91 -174
c0 -22 -4 -50 -12 -84h83v-103h-478c-67 0 -108 28 -133 72c-38 -47 -80 -72 -128 -72h-117v103h109zM369 579c31 0 67 -28 67 -61c0 -34 -23 -74 -61 -74c-46 0 -74 28 -74 74c0 32 38 61 68 61z" />
    <glyph glyph-name="afii62798" unicode="&#x637;" horiz-adv-x="543" arabic-form="final" 
d="M365 275c-22 0 -53 -18 -90 -58c-31 -30 -58 -71 -80 -119h172c28 0 50 48 50 90c0 40 -10 65 -27 80c-3 2 -13 5 -25 7zM516 138c0 -11 -3 -24 -8 -40h49v-103h-521l-21 103h80v508h103v-327c54 65 105 100 156 100c19 0 43 -8 73 -23h1c61 -35 91 -97 91 -181v-13z" />
    <glyph glyph-name="afii62796" unicode="&#x637;" horiz-adv-x="511" arabic-form="initial" 
d="M325 275c-23 0 -52 -16 -88 -53c-33 -35 -61 -76 -84 -124h176c30 0 48 22 48 85c0 43 -11 70 -30 85c-1 1 -10 5 -22 7zM388 356c57 -31 94 -110 94 -193c0 -43 -12 -81 -37 -113c-27 -36 -68 -55 -118 -55h-349v103h80v508h102v-326c53 65 104 99 155 99
c22 0 45 -8 73 -23z" />
    <glyph glyph-name="afii62797" unicode="&#x637;" horiz-adv-x="492" arabic-form="medial" 
d="M309 98c8 0 27 8 38 29h1c6 3 9 41 9 61c0 37 -9 63 -26 80c-3 2 -13 5 -24 7c-23 0 -55 -18 -92 -58c-31 -32 -58 -73 -80 -119h174zM459 177c0 -30 -4 -57 -12 -79h61v-103h-538v103h68v508h101v-327c54 66 106 100 159 100c19 0 42 -8 70 -23c61 -35 91 -96 91 -179z
" />
    <glyph glyph-name="afii62801" unicode="&#x638;" horiz-adv-x="543" arabic-form="final" 
d="M365 275c-22 0 -53 -18 -90 -58c-31 -30 -58 -71 -80 -119h172c28 0 50 48 50 90c0 40 -10 65 -27 80c-3 2 -13 5 -25 7zM516 138c0 -11 -3 -24 -8 -40h49v-103h-521l-21 103h80v508h103v-327c54 65 105 100 156 100c19 0 43 -8 73 -23h1c61 -35 91 -97 91 -181v-13z
M390 595c31 0 67 -28 67 -61c0 -34 -23 -74 -61 -74c-46 0 -74 28 -74 74c0 32 38 61 68 61z" />
    <glyph glyph-name="afii62799" unicode="&#x638;" horiz-adv-x="511" arabic-form="initial" 
d="M324 581c31 0 67 -28 67 -61c0 -34 -23 -74 -61 -74c-46 0 -74 28 -74 74c0 32 38 61 68 61zM325 275c-23 0 -52 -16 -88 -53c-33 -35 -61 -76 -84 -124h176c30 0 48 22 48 85c0 43 -11 70 -30 85c-1 1 -10 5 -22 7zM388 356c57 -31 94 -110 94 -193
c0 -43 -12 -81 -37 -113c-27 -36 -68 -55 -118 -55h-349v103h80v508h102v-326c53 65 104 99 155 99c22 0 45 -8 73 -23z" />
    <glyph glyph-name="afii62800" unicode="&#x638;" horiz-adv-x="492" arabic-form="medial" 
d="M307 576c31 0 67 -28 67 -61c0 -34 -23 -74 -61 -74c-46 0 -74 28 -74 74c0 32 38 61 68 61zM309 98c8 0 27 8 38 29h1c6 3 9 41 9 61c0 37 -9 63 -26 80c-3 2 -13 5 -24 7c-23 0 -55 -18 -92 -58c-31 -32 -58 -73 -80 -119h174zM459 177c0 -30 -4 -57 -12 -79h61v-103
h-538v103h68v508h101v-327c54 66 106 100 159 100c19 0 42 -8 70 -23c61 -35 91 -96 91 -179z" />
    <glyph glyph-name="afii62804" unicode="&#x639;" horiz-adv-x="621" arabic-form="final" 
d="M486 255c0 8 -10 18 -42 24h-139l93 -98c30 17 54 30 68 42c15 13 20 23 20 32zM225 -300c39 -37 80 -54 123 -54h278l9 -104h-263c-86 0 -158 32 -217 93c-61 57 -91 124 -91 204c0 59 20 115 59 166c38 50 99 93 183 131l-124 119l35 60l32 64h202
c80 0 129 -36 138 -107v-1c0 -25 -1 -41 -7 -50c-9 -38 -46 -74 -105 -109c35 -10 87 -14 160 -14h10v-103h-10c-62 0 -108 3 -136 9c-51 9 -91 29 -118 59c-150 -63 -220 -140 -220 -232c0 -43 20 -87 62 -131z" />
    <glyph glyph-name="afii62802" unicode="&#x639;" horiz-adv-x="470" arabic-form="initial" 
d="M106 98c-18 45 -27 81 -27 111c0 50 19 94 58 130c15 13 34 23 57 30h1l32 7l43 3c40 0 90 -18 113 -41c14 -8 28 -19 40 -33l-51 -80l-8 6c-47 36 -85 53 -116 53c-32 0 -52 -15 -64 -47l-3 -7c-1 0 -4 -16 -4 -16v-16c0 -16 4 -34 12 -52c14 -34 33 -48 59 -48h191
l19 -103h-484v103h132z" />
    <glyph glyph-name="afii62803" unicode="&#x639;" horiz-adv-x="432" arabic-form="medial" 
d="M300 253c0 19 -12 20 -38 26h-139l93 -97c28 15 49 27 63 39c15 12 21 23 21 32zM306 117c40 -12 85 -19 138 -19h10v-103h-10c-57 0 -99 3 -127 10c-27 5 -59 25 -98 57c-38 -30 -75 -50 -116 -61h-1c-25 -4 -65 -6 -119 -6h-9v103h9c76 0 127 12 152 30l-128 126
l65 125h203c80 0 127 -36 135 -107v-1c0 -24 0 -39 -3 -48c-14 -45 -61 -81 -101 -106z" />
    <glyph glyph-name="afii62807" unicode="&#x63a;" horiz-adv-x="621" arabic-form="final" 
d="M398 581c31 0 67 -28 67 -61c0 -34 -23 -74 -61 -74c-46 0 -74 28 -74 74c0 32 38 61 68 61zM486 255c0 8 -10 18 -42 24h-139l93 -98c30 17 54 30 68 42c15 13 20 23 20 32zM225 -300c39 -37 80 -54 123 -54h278l9 -104h-263c-86 0 -158 32 -217 93
c-61 57 -91 124 -91 204c0 59 20 115 59 166c38 50 99 93 183 131l-124 119l35 60l32 64h202c80 0 129 -36 138 -107v-1c0 -25 -1 -41 -7 -50c-9 -38 -46 -74 -105 -109c35 -10 87 -14 160 -14h10v-103h-10c-62 0 -108 3 -136 9c-51 9 -91 29 -118 59
c-150 -63 -220 -140 -220 -232c0 -43 20 -87 62 -131z" />
    <glyph glyph-name="afii62805" unicode="&#x63a;" horiz-adv-x="470" arabic-form="initial" 
d="M106 98c-18 45 -27 81 -27 111c0 50 19 94 58 130c15 13 34 23 57 30h1l32 7l43 3c40 0 90 -18 113 -41c14 -8 28 -19 40 -33l-51 -80l-8 6c-47 36 -85 53 -116 53c-32 0 -52 -15 -64 -47l-3 -7c-1 0 -4 -16 -4 -16v-16c0 -16 4 -34 12 -52c14 -34 33 -48 59 -48h191
l19 -103h-484v103h132zM280 578c31 0 67 -28 67 -61c0 -34 -23 -74 -61 -74c-46 0 -74 28 -74 74c0 32 38 61 68 61z" />
    <glyph glyph-name="afii62806" unicode="&#x63a;" horiz-adv-x="432" arabic-form="medial" 
d="M300 253c0 19 -12 20 -38 26h-139l93 -97c28 15 49 27 63 39c15 12 21 23 21 32zM306 117c40 -12 85 -19 138 -19h10v-103h-10c-57 0 -99 3 -127 10c-27 5 -59 25 -98 57c-38 -30 -75 -50 -116 -61h-1c-25 -4 -65 -6 -119 -6h-9v103h9c76 0 127 12 152 30l-128 126
l65 125h203c80 0 127 -36 135 -107v-1c0 -24 0 -39 -3 -48c-14 -45 -61 -81 -101 -106zM222 591c31 0 67 -28 67 -61c0 -34 -23 -74 -61 -74c-46 0 -74 28 -74 74c0 32 38 61 68 61z" />
    <glyph glyph-name="afii62810" unicode="&#x641;" horiz-adv-x="842" arabic-form="final" 
d="M709 201c0 36 -36 78 -69 78c-34 0 -75 -34 -75 -66c0 -31 29 -63 92 -94c36 23 52 51 52 82zM137 167c0 -46 22 -69 66 -69h314c-31 39 -46 78 -46 118c0 43 15 82 45 114s72 49 121 49s91 -18 123 -54c28 -34 43 -73 43 -117c0 -40 -10 -76 -29 -110h86v-103h-10
c-97 0 -163 7 -197 21c-20 -16 -53 -13 -85 -16c-27 -2 -58 -3 -93 -3l-311 -2c-37 0 -70 20 -97 55c-21 32 -32 67 -32 103v146h102v-132zM635 576c31 0 67 -28 67 -61c0 -34 -23 -74 -61 -74c-46 0 -74 28 -74 74c0 32 38 61 68 61z" />
    <glyph glyph-name="afii62808" unicode="&#x641;" horiz-adv-x="436" arabic-form="initial" 
d="M190 261c3 -3 23 -5 59 -5h58c-2 52 -32 94 -80 94c-34 0 -60 -17 -60 -43c0 -30 8 -42 21 -46h2zM416 156c0 -55 -20 -97 -58 -125c-30 -23 -60 -36 -93 -36h-286v103h287c31 0 47 17 48 61c-83 0 -136 3 -162 9h-1c-54 23 -81 68 -81 132c0 48 16 87 49 115
s72 42 116 42s84 -16 118 -48c41 -35 61 -84 61 -144zM238 660c31 0 67 -28 67 -61c0 -34 -23 -74 -61 -74c-46 0 -74 28 -74 74c0 32 38 61 68 61z" />
    <glyph glyph-name="afii62809" unicode="&#x641;" horiz-adv-x="445" arabic-form="medial" 
d="M217 279c-32 0 -70 -36 -70 -67c0 -33 27 -64 89 -93c18 15 31 28 40 41s14 27 14 41c0 35 -40 78 -73 78zM49 219c0 95 76 160 170 160c51 0 93 -17 123 -53c27 -34 41 -74 41 -118c0 -39 -10 -76 -29 -110h122v-103l-35 3h-25l-66 2c-26 0 -52 2 -75 6h-1l-40 14
c-32 -18 -118 -25 -263 -25h-10v103h134c-31 39 -46 79 -46 121zM228 591c31 0 67 -28 67 -61c0 -34 -23 -74 -61 -74c-46 0 -74 28 -74 74c0 32 38 61 68 61z" />
    <glyph glyph-name="afii62813" unicode="&#x642;" horiz-adv-x="702" arabic-form="final" 
d="M548 98c-3 48 -45 95 -92 95c-36 0 -63 -14 -63 -42c0 -24 10 -38 31 -48c6 -4 61 -5 124 -5zM629 -93c-11 -31 -34 -57 -58 -81c-46 -45 -102 -68 -166 -68h-145c-59 0 -111 26 -157 76s-70 108 -70 172v141h102v-154c0 -33 15 -62 48 -89s65 -40 96 -40h123
c36 0 66 13 94 39h1v1c31 24 47 54 48 91c-25 0 -132 0 -167 13c-56 19 -84 67 -84 137c0 94 76 154 169 154c115 0 185 -88 187 -201h76v-103h-78c-1 -33 -8 -64 -19 -86v-2zM392 513c36 0 68 -32 68 -68c0 -31 -29 -67 -62 -67c-45 0 -74 28 -74 74c0 32 38 61 68 61z
M535 513c36 0 68 -32 68 -68c0 -31 -28 -67 -61 -67c-46 0 -75 28 -75 74c0 33 37 61 68 61z" />
    <glyph glyph-name="afii62811" unicode="&#x642;" horiz-adv-x="436" arabic-form="initial" 
d="M190 261c3 -3 23 -5 59 -5h58c-2 52 -32 94 -80 94c-34 0 -60 -17 -60 -43c0 -30 8 -42 21 -46h2zM416 156c0 -55 -20 -97 -58 -125c-30 -23 -60 -36 -93 -36h-286v103h287c31 0 47 17 48 61c-83 0 -136 3 -162 9h-1c-54 23 -81 68 -81 132c0 48 16 87 49 115
s72 42 116 42s84 -16 118 -48c41 -35 61 -84 61 -144zM164 656c36 0 68 -32 68 -68c0 -31 -29 -67 -62 -67c-45 0 -74 28 -74 74c0 32 38 61 68 61zM307 656c36 0 68 -32 68 -68c0 -31 -28 -67 -61 -67c-46 0 -75 28 -75 74c0 33 37 61 68 61z" />
    <glyph glyph-name="afii62812" unicode="&#x642;" horiz-adv-x="445" arabic-form="medial" 
d="M217 279c-32 0 -70 -36 -70 -67c0 -33 27 -64 89 -93c18 15 31 28 40 41s14 27 14 41c0 35 -40 78 -73 78zM49 219c0 95 76 160 170 160c51 0 93 -17 123 -53c27 -34 41 -74 41 -118c0 -39 -10 -76 -29 -110h122v-103l-35 3h-25l-66 2c-26 0 -52 2 -75 6h-1l-40 14
c-32 -18 -118 -25 -263 -25h-10v103h134c-31 39 -46 79 -46 121zM147 582c36 0 68 -32 68 -68c0 -31 -29 -67 -62 -67c-45 0 -74 28 -74 74c0 32 38 61 68 61zM290 582c36 0 68 -32 68 -68c0 -31 -28 -67 -61 -67c-46 0 -75 28 -75 74c0 33 37 61 68 61z" />
    <glyph glyph-name="afii62816" unicode="&#x643;" horiz-adv-x="848" arabic-form="final" 
d="M654 160v446h103v-439c0 -67 32 -69 98 -69h22v-103h-35c-75 0 -95 5 -135 37c-22 -18 -42 -28 -60 -31c-21 -4 -177 -6 -474 -6c-82 0 -138 77 -138 158v146h104v-132c0 -55 11 -69 65 -69l355 -2h30c47 0 65 22 65 64zM460 451l27 -49c-64 -33 -128 -65 -188 -95
c-11 25 -21 46 -23 49c21 10 40 19 40 19c-17 25 -26 50 -26 78c0 44 35 82 84 82c27 0 51 -11 77 -22c-2 -5 -21 -46 -22 -46c-21 9 -37 15 -50 15c-24 0 -35 -17 -35 -35c0 -20 13 -38 32 -38c0 0 62 30 84 42z" />
    <glyph glyph-name="afii57410" unicode="&#x643;" horiz-adv-x="438" arabic-form="initial" 
d="M368 37c-28 -28 -68 -42 -117 -42h-277v103h277c38 0 49 11 49 30c0 9 -5 22 -16 37l-249 260l-19 103l386 139l12 -100l-272 -100l236 -262c18 -23 28 -49 28 -79c0 -31 -13 -61 -38 -89z" />
    <glyph glyph-name="afii62815" unicode="&#x643;" horiz-adv-x="538" arabic-form="medial" 
d="M385 66c-22 -48 -47 -71 -119 -71h-285v103h275c34 0 44 10 44 30c0 9 -6 24 -20 40l-236 256l-15 111l379 135l16 -103l-273 -100l256 -283c38 -42 66 -67 81 -77c2 -2 14 -4 22 -7l43 -2v-103h-10c-71 1 -124 26 -158 71z" />
    <glyph glyph-name="afii62819" unicode="&#x644;" horiz-adv-x="732" arabic-form="final" 
d="M403 -140c77 0 145 58 145 133v613h102v-446c0 -39 28 -61 99 -62h10v-103h-10c-42 1 -76 14 -97 37c-2 -82 -26 -150 -74 -204h-1c-45 -46 -100 -70 -167 -70h-144c-61 0 -115 26 -161 76c-46 49 -70 108 -70 172v199h102v-212c0 -33 14 -63 42 -91s62 -42 105 -42h119z
" />
    <glyph glyph-name="afii62817" unicode="&#x644;" horiz-adv-x="226" arabic-form="initial" 
d="M47 98c54 0 59 27 59 86v422h101v-461c0 -92 -63 -150 -154 -150h-75v103h69z" />
    <glyph glyph-name="afii62818" unicode="&#x644;" horiz-adv-x="310" arabic-form="medial" 
d="M303 -5c-77 0 -93 4 -135 37c-22 -18 -42 -28 -60 -31c-19 -4 -59 -6 -120 -6h-10v103h72c57 0 63 20 63 86v422h103v-439c0 -34 11 -51 28 -57c19 -7 46 -12 82 -12h10v-103h-33z" />
    <glyph glyph-name="afii62822" unicode="&#x645;" horiz-adv-x="656" arabic-form="final" 
d="M229 278c-48 -3 -94 -42 -94 -86v-434h-100v421c0 62 17 113 51 151v1h1c37 32 82 48 135 48h191c104 0 154 -80 154 -224c0 -36 27 -56 95 -57h10v-103h-10c-33 0 -61 5 -83 12h-1c-17 9 -34 27 -52 52c-22 -47 -63 -70 -120 -70c-47 0 -87 17 -119 48
c-39 33 -58 77 -58 132v109zM331 151c0 -35 30 -59 68 -59c41 0 69 29 69 70c0 57 -8 89 -15 95c-12 12 -52 21 -122 21v-127z" />
    <glyph glyph-name="afii62820" unicode="&#x645;" horiz-adv-x="435" arabic-form="initial" 
d="M244 83c55 0 77 37 77 99c0 61 -22 96 -77 96s-77 -34 -77 -96s22 -99 77 -99zM410 178c0 -109 -55 -197 -166 -197c-44 0 -80 12 -106 35c-33 -14 -83 -21 -152 -21h-10v103h10c47 0 74 6 82 14c2 5 4 30 4 68v9c0 49 15 95 45 133c29 38 72 57 125 57
c111 0 168 -93 168 -201z" />
    <glyph glyph-name="afii62821" unicode="&#x645;" horiz-adv-x="470" arabic-form="medial" 
d="M161 182c0 -63 22 -99 78 -99c50 0 75 30 75 99c0 68 -25 96 -75 96c-53 0 -78 -28 -78 -96zM479 -5c-60 1 -88 15 -111 50c-29 -44 -73 -64 -129 -64c-20 0 -44 8 -72 23c-20 12 -36 26 -48 40c-14 -35 -64 -49 -139 -49h-10v103h10c52 0 78 8 83 14c1 1 4 6 4 17
c0 12 1 31 1 60c0 49 15 94 44 133c29 38 71 57 124 57s97 -19 127 -58c30 -38 45 -84 45 -139c0 -49 1 -74 29 -81c9 -2 23 -3 42 -3h10v-103h-10z" />
    <glyph glyph-name="afii62825" unicode="&#x646;" horiz-adv-x="739" arabic-form="final" 
d="M745 -5c-42 1 -75 13 -95 36c-3 -82 -27 -149 -74 -203h-1c-45 -46 -100 -70 -166 -70h-144c-60 0 -114 26 -160 76c-46 49 -70 108 -70 172v199h102v-212c0 -33 13 -63 40 -91s62 -42 106 -42h120c37 0 70 13 100 38s44 56 44 95v306h102v-139c0 -39 27 -61 96 -62h10
v-103h-10zM399 426c0 -31 -28 -68 -61 -68c-40 0 -74 24 -74 67c0 36 30 68 67 68s68 -30 68 -67z" />
    <glyph glyph-name="afii62823" unicode="&#x646;" horiz-adv-x="304" arabic-form="initial" 
d="M173 510c31 0 67 -28 67 -61c0 -34 -23 -74 -61 -74c-46 0 -74 28 -74 74c0 32 38 61 68 61zM276 153c0 -78 -63 -158 -142 -158h-156v103h127c29 0 48 8 58 19v7h3c2 8 4 23 4 43v132h106v-146z" />
    <glyph glyph-name="afii62824" unicode="&#x646;" horiz-adv-x="383" arabic-form="medial" 
d="M200 515c31 0 67 -28 67 -61c0 -34 -23 -74 -61 -74c-46 0 -74 28 -74 74c0 32 38 61 68 61zM154 98c53 0 63 14 63 69v132h105v-132c0 -60 13 -68 76 -69h10v-103l-61 2l-29 4l-23 12l-23 19c-31 -24 -61 -37 -90 -37h-206v103h178z" />
    <glyph glyph-name="afii62828" unicode="&#x647;" horiz-adv-x="579" arabic-form="final" 
d="M240 83c41 0 85 38 85 77c0 16 -5 33 -15 50c-24 24 -48 47 -72 71c-33 -31 -54 -53 -64 -69s-14 -31 -14 -48c0 -16 6 -33 20 -52s33 -29 60 -29zM541 108c8 -8 31 -10 54 -10h9v-103h-9c-44 0 -73 6 -88 18c-10 5 -39 30 -94 80c-36 -71 -94 -109 -174 -109
c-50 0 -93 18 -129 53s-54 80 -54 132c0 35 12 70 36 106c12 19 39 48 72 81l-27 32l70 71l284 -302c22 -23 39 -40 49 -49h1z" />
    <glyph glyph-name="afii62829" unicode="&#x648;" horiz-adv-x="464" arabic-form="final" 
d="M312 -5c-146 1 -242 38 -242 186c0 76 19 133 59 168c26 21 65 30 114 30c72 0 125 -31 154 -93c16 -39 23 -101 23 -188h64v-103h-64c-2 -95 -55 -165 -119 -203c-38 -22 -79 -34 -126 -34h-125l-15 102h125c46 0 82 14 110 42s41 59 42 93zM317 183c0 55 -28 94 -79 94
c-41 0 -63 -26 -63 -91c0 -37 11 -59 28 -70s55 -18 114 -18v85z" />
    <glyph glyph-name="afii62830" unicode="&#x649;" horiz-adv-x="670" arabic-form="final" 
d="M690 -5h-85l3 -40c0 -55 -22 -102 -65 -140c-42 -38 -90 -57 -144 -57h-146c-72 0 -131 28 -177 83l-1 1c-39 53 -58 117 -58 192v171h105v-209c0 -31 10 -60 32 -88h1c29 -32 68 -48 120 -48h120c30 0 55 9 78 26c21 16 32 40 32 74c0 13 -8 23 -39 28
c-27 5 -75 7 -144 7h-9l-9 103h386v-103z" />
    <glyph glyph-name="afii62833" unicode="&#x64a;" horiz-adv-x="670" arabic-form="final" 
d="M243 -297c36 0 68 -32 68 -68c0 -31 -29 -67 -62 -67c-45 0 -74 28 -74 74c0 32 38 61 68 61zM386 -297c36 0 68 -32 68 -68c0 -31 -28 -67 -61 -67c-46 0 -75 28 -75 74c0 33 37 61 68 61zM690 -5h-85l3 -40c0 -55 -22 -102 -65 -140c-42 -38 -90 -57 -144 -57h-146
c-72 0 -131 28 -177 83l-1 1c-39 53 -58 117 -58 192v171h105v-209c0 -31 10 -60 32 -88h1c29 -32 68 -48 120 -48h120c30 0 55 9 78 26c21 16 32 40 32 74c0 13 -8 23 -39 28c-27 5 -75 7 -144 7h-9l-9 103h386v-103z" />
    <glyph glyph-name="afii62831" unicode="&#x64a;" horiz-adv-x="304" arabic-form="initial" 
d="M276 153c0 -78 -63 -158 -142 -158h-156v103h127c29 0 48 8 58 19v7h3c2 8 4 23 4 43v132h106v-146zM86 -84c36 0 68 -32 68 -68c0 -31 -29 -67 -62 -67c-45 0 -74 28 -74 74c0 32 38 61 68 61zM229 -84c36 0 68 -32 68 -68c0 -31 -28 -67 -61 -67c-46 0 -75 28 -75 74
c0 33 37 61 68 61z" />
    <glyph glyph-name=".notdef" horiz-adv-x="500" 
d="M50 0v533h400v-533h-400zM100 50h300v433h-300v-433z" />
    <glyph glyph-name="space" unicode=" " horiz-adv-x="169" 
 />
    <glyph glyph-name="quotedbl" unicode="&#x22;" horiz-adv-x="418" 
d="M253 604c27 -1 33 -17 33 -43c0 -7 -17 -162 -17 -168v-5h-35v4c0 14 -16 164 -16 180c0 22 13 32 35 32zM129 604c27 -1 34 -17 34 -43c0 -7 -17 -162 -17 -168v-5h-35v4c0 14 -16 164 -16 180c0 22 12 32 34 32z" />
    <glyph glyph-name="numbersign" unicode="#" horiz-adv-x="373" 
d="M225 181l24 119h-103l-24 -119h103zM63 132h-56v49h65l25 119h-90v49h99l30 140h48l-30 -140h105l29 140h49l-28 -140h56v-49h-67l-24 -119h91v-49h-101l-28 -140h-50l29 140h-104l-28 -140h-49z" />
    <glyph glyph-name="dollar" unicode="$" horiz-adv-x="373" 
d="M202 40c46 7 80 41 80 91c0 29 -8 48 -20 59s-32 21 -60 30v-180zM167 448c-41 -9 -74 -34 -74 -80c0 -43 24 -71 74 -84v164zM34 363c0 84 57 124 133 134v29h35v-29c74 -10 117 -48 128 -114l1 -5l-61 -8c-9 44 -28 69 -68 78v-171c24 -6 43 -12 59 -18
c53 -24 81 -65 81 -122c0 -84 -59 -142 -140 -146v-60h-35v59c-29 4 -50 10 -65 17c-46 25 -72 65 -77 122v5l58 10l1 -4c11 -61 39 -94 83 -100v188c-28 7 -49 15 -69 26c-42 23 -64 60 -64 109z" />
    <glyph glyph-name="percent" unicode="%" horiz-adv-x="422" 
d="M357 48c0 -26 -21 -47 -47 -47c-27 0 -47 20 -47 47c0 26 21 48 47 48c25 0 47 -23 47 -48zM138 434c0 -25 -22 -47 -47 -47c-26 0 -47 21 -47 47s21 46 47 46c25 0 47 -21 47 -46zM386 486l-269 -488h-72l266 488h75z" />
    <glyph glyph-name="ampersand" unicode="&#x26;" horiz-adv-x="447" 
d="M174 238c-45 -26 -70 -52 -78 -77c-2 -7 -3 -16 -3 -26c0 -20 7 -40 23 -60c16 -21 37 -32 66 -32c41 0 83 31 100 60zM260 387c0 30 -24 53 -54 53c-31 0 -56 -23 -56 -53c0 -16 7 -32 22 -49l27 -31c27 16 43 29 49 39c8 12 12 26 12 41zM316 159c12 25 18 45 23 68
l62 -14l-2 -5c-11 -41 -25 -74 -41 -98c25 -31 48 -55 70 -71l4 -4l-40 -46l-3 3c-23 17 -47 39 -70 65c-39 -43 -83 -65 -134 -65c-50 0 -91 17 -120 50c-24 27 -36 57 -36 90c0 73 57 119 115 144c-30 39 -48 66 -52 84c-2 8 -3 14 -3 21c0 61 58 108 119 108
c60 0 113 -42 113 -102c0 -46 -32 -85 -92 -117z" />
    <glyph glyph-name="quotesingle" unicode="'" horiz-adv-x="239" 
d="M129 604c27 -1 34 -17 34 -43c0 -7 -17 -162 -17 -168v-5h-35v4c0 14 -16 164 -16 180c0 22 12 32 34 32z" />
    <glyph glyph-name="parenleft" unicode="(" horiz-adv-x="352" 
d="M184 -37c-90 120 -139 238 -139 354c0 60 13 120 39 179h1c0 1 76 137 99 164h68l-8 -14c-39 -74 -64 -129 -73 -165c-17 -56 -26 -117 -26 -184c0 -97 33 -203 100 -319l8 -15h-69z" />
    <glyph glyph-name="parenright" unicode=")" horiz-adv-x="310" 
d="M110 660c49 -54 84 -113 101 -163v-1c26 -59 39 -119 39 -179c0 -116 -49 -234 -139 -354h-69l9 15c67 116 99 221 99 314c0 97 -17 184 -53 262c-11 24 -26 55 -46 92l-8 14h67z" />
    <glyph glyph-name="asterisk" unicode="*" horiz-adv-x="461" 
d="M233 143l2 140l-89 -91h-43l114 114h-134l8 38h134l-111 109h38l86 -85l2 124l49 16l-3 -134l85 79h44l-116 -109h137l-9 -38h-129l113 -114h-38l-88 91l-3 -125z" />
    <glyph glyph-name="plus" unicode="+" horiz-adv-x="513" 
d="M224 75v162h-163v68h163v163h68v-163h163v-68h-163v-162h-68z" />
    <glyph glyph-name="comma" unicode="," horiz-adv-x="105" 
d="M94 69l-64 -137h-34l40 137h58z" />
    <glyph glyph-name="hyphen" unicode="-" horiz-adv-x="514" 
d="M61 237v68h394v-68h-394z" />
    <glyph glyph-name="period" unicode="." horiz-adv-x="278" 
d="M224 69c0 -37 -32 -68 -69 -68s-68 31 -68 68s31 69 68 69c36 0 69 -32 69 -69z" />
    <glyph glyph-name="slash" unicode="/" horiz-adv-x="422" 
d="M386 486l-269 -488h-72l266 488h75z" />
    <glyph glyph-name="colon" unicode=":" horiz-adv-x="272" 
d="M203 359c0 -34 -27 -60 -61 -60c-33 0 -61 26 -61 60c0 33 27 62 61 62c33 0 61 -29 61 -62zM203 63c0 -34 -28 -60 -61 -60s-61 26 -61 60c0 33 27 62 61 62s61 -29 61 -62z" />
    <glyph glyph-name="semicolon" unicode=";" horiz-adv-x="146" 
d="M54 -31c19 5 30 6 30 22c0 3 0 5 -1 8c-24 0 -37 14 -37 37c0 19 18 37 37 37c20 0 35 -17 35 -37v-52c0 -29 -16 -44 -45 -44h-19v29zM121 203c0 -19 -17 -36 -36 -36s-36 17 -36 36s17 36 36 36s36 -17 36 -36z" />
    <glyph glyph-name="less" unicode="&#x3c;" horiz-adv-x="457" 
d="M392 24l-330 158v37l330 157v-54l-257 -121l257 -122v-55z" />
    <glyph glyph-name="equal" unicode="=" horiz-adv-x="474" 
d="M34 229h404v-68h-404v68zM34 355h404v-69h-404v69z" />
    <glyph glyph-name="greater" unicode="&#x3e;" horiz-adv-x="457" 
d="M396 182l-330 -158v55l257 122l-257 121v54l330 -157v-37z" />
    <glyph glyph-name="question" unicode="?" horiz-adv-x="373" 
d="M151 67h67v-67h-67v67zM30 356c12 83 65 133 158 133c80 0 152 -51 152 -131c0 -21 -5 -41 -15 -59c-10 -17 -29 -37 -56 -61c-24 -21 -39 -37 -45 -50s-12 -34 -13 -65v-5h-56v18c0 74 37 105 76 139c20 17 33 33 39 44c7 12 10 24 10 35c0 47 -45 86 -93 86
c-53 0 -85 -29 -97 -92l-1 -4l-59 7v5z" />
    <glyph glyph-name="at" unicode="@" horiz-adv-x="681" 
d="M412 216c0 46 -28 91 -70 91c-55 0 -93 -49 -107 -94c-8 -25 -13 -52 -13 -78c0 -40 28 -88 65 -88c55 0 94 48 111 92c10 25 14 51 14 77zM444 73c0 -11 11 -19 23 -19c10 0 24 5 42 16c41 28 84 89 84 155c0 87 -36 149 -111 189c-36 19 -77 28 -123 28
c-80 0 -145 -26 -197 -80s-78 -122 -78 -205c0 -165 116 -250 284 -250c104 0 186 36 230 96l1 2h59l-4 -7c-18 -34 -52 -65 -98 -93c-51 -31 -114 -46 -188 -46h-7c-69 0 -130 15 -183 43c-93 50 -140 135 -141 254c0 53 10 104 32 151c55 122 154 182 293 182
c121 0 202 -52 248 -131c21 -40 32 -81 32 -124c0 -64 -22 -120 -67 -168c-39 -44 -83 -67 -131 -67c-42 0 -59 16 -63 55c-32 -36 -65 -55 -101 -55c-45 0 -79 24 -101 69c-11 25 -17 49 -17 71c0 95 60 186 132 210c12 4 24 6 38 6c41 0 74 -21 98 -61c0 0 11 43 12 48v4
h59l-47 -220c-6 -30 -10 -48 -10 -53z" />
    <glyph glyph-name="braceleft" unicode="{" horiz-adv-x="223" 
d="M24 201c51 3 62 42 62 99v51c0 55 2 77 26 112c13 18 40 26 78 26h19v-51h-11c-43 0 -56 -12 -56 -54v-31c0 -38 -2 -68 -4 -91c-9 -52 -23 -68 -65 -88h-1l1 -1c57 -22 69 -64 69 -143c0 -45 1 -74 2 -85c4 -27 17 -35 51 -35h14v-51h-19c-43 0 -60 5 -80 29
c-9 10 -16 24 -19 41c-2 8 -2 35 -4 83s-4 78 -6 86c-7 30 -26 46 -58 49h-4v53z" />
    <glyph glyph-name="braceright" unicode="}" horiz-adv-x="223" 
d="M25 -90c50 0 57 15 57 68c0 57 1 95 4 112c6 40 28 68 65 83c1 0 0 1 0 1c-24 12 -42 28 -53 48s-16 55 -16 105c0 52 -2 82 -4 87c-7 20 -21 24 -53 24h-9v51h18c60 0 90 -20 99 -72c1 -5 8 -160 9 -167c7 -32 26 -47 59 -49l5 -1v-53h-4c-61 -5 -62 -56 -64 -127
c-1 -57 2 -99 -24 -133c-15 -19 -41 -28 -80 -28h-18v51h9z" />
    <glyph glyph-name="copyright" unicode="&#xa9;" horiz-adv-x="509" 
d="M179 189c0 81 57 148 136 156c5 0 10 1 15 1c24 0 51 -4 77 -11l4 -2l-14 -56l-21 4l3 33c-22 9 -39 13 -54 13h-7c-42 -3 -70 -38 -83 -72c-8 -21 -12 -43 -12 -66c0 -51 23 -78 73 -78c26 0 50 7 73 15l-4 -25c-28 -9 -55 -14 -76 -14c-65 0 -110 38 -110 102zM148 69
c42 -42 92 -62 150 -62s107 20 149 62s62 91 62 149s-20 108 -62 150c-41 41 -91 62 -149 62s-109 -21 -150 -62c-42 -42 -62 -92 -62 -150s20 -107 62 -149zM298 448c63 0 117 -23 162 -68s67 -99 67 -162s-22 -116 -67 -161s-99 -68 -162 -68c-62 0 -116 23 -162 68
c-45 44 -68 98 -68 161c0 64 23 119 68 163c45 45 99 67 162 67z" />
    <glyph glyph-name="guillemotleft" unicode="&#xab;" horiz-adv-x="344" 
d="M115 296c13 21 34 36 62 46l10 3l-4 -10c-3 -7 -6 -14 -10 -23c-17 -34 -30 -94 -30 -145v-2c0 -55 11 -107 34 -155c5 -9 6 -12 8 -22c-31 12 -56 25 -70 48c-22 36 -32 79 -32 129c0 51 10 95 32 131zM230 296c13 21 34 36 62 46l10 3l-4 -10c-3 -7 -6 -14 -10 -23
c-17 -34 -30 -94 -30 -145v-2c0 -55 11 -107 34 -155c5 -9 6 -12 8 -22c-31 12 -56 25 -70 48c-22 36 -32 79 -32 129c0 51 10 95 32 131z" />
    <glyph glyph-name="logicalnot" unicode="&#xac;" horiz-adv-x="381" 
d="M73 209l6 33h321l-28 -140h-38l21 107h-282z" />
    <glyph glyph-name="registered" unicode="&#xae;" horiz-adv-x="367" 
d="M220 321h15c36 0 51 11 51 34c0 12 -10 20 -37 20h-18zM308 359c0 -21 -16 -37 -42 -51l15 -46h25l-4 -17h-39l-20 58h-26l-11 -58h-44l3 17h22l23 113h-22l3 18h54c38 0 63 -10 63 -34zM238 428c-61 0 -114 -54 -114 -115s53 -115 114 -115c63 0 115 53 115 115
s-53 115 -115 115zM238 444c72 0 131 -60 131 -131s-60 -130 -131 -130s-131 59 -131 130s60 131 131 131z" />
    <glyph glyph-name="macron" unicode="&#xaf;" horiz-adv-x="458" 
d="M465 517h-471v52h471v-52z" />
    <glyph glyph-name="degree" unicode="&#xb0;" horiz-adv-x="167" 
d="M162 430c-18 0 -33 -15 -33 -33s15 -33 33 -33s32 15 32 33s-14 33 -32 33zM163 448c28 0 49 -23 49 -51s-22 -51 -49 -51c-28 0 -52 24 -52 51c0 28 24 51 52 51z" />
    <glyph glyph-name="periodcentered" unicode="&#xb7;" horiz-adv-x="296" 
d="M198 342h-98v116h98v-116z" />
    <glyph glyph-name="guillemotright" unicode="&#xbb;" horiz-adv-x="338" 
d="M84 -12c21 46 44 108 44 177v2c0 55 -11 107 -34 155c-2 3 -4 7 -6 13l-4 10l10 -3c28 -10 50 -26 62 -47c22 -36 32 -78 32 -128c0 -51 -10 -94 -32 -130c-12 -21 -34 -36 -62 -46zM270 37c-12 -21 -33 -36 -61 -46l-10 -3c11 33 26 57 35 98c6 27 9 53 9 79v2
c0 55 -11 107 -34 155c-2 3 -5 7 -7 13l-3 10l10 -3c28 -10 49 -26 61 -47c22 -36 32 -78 32 -128c0 -51 -10 -94 -32 -130z" />
    <glyph glyph-name="multiply" unicode="&#xd7;" horiz-adv-x="475" 
d="M95 156l115 115l-115 116l48 48l115 -116l115 115l48 -48l-115 -115l115 -115l-48 -48l-115 115l-115 -115z" />
    <glyph glyph-name="divide" unicode="&#xf7;" horiz-adv-x="527" 
d="M302 40h-73v84h73v-84zM447 211h-363v50h363v-50zM302 348h-73v84h73v-84z" />
    <glyph glyph-name="afii57388" unicode="&#x60c;" horiz-adv-x="250" 
d="M74 61c0 107 14 169 106 173h10v-62h-9c-25 -2 -37 -14 -38 -43c43 -2 67 -25 67 -68c0 -39 -26 -60 -68 -60s-68 21 -68 60z" />
    <glyph glyph-name="afii57403" unicode="&#x61b;" horiz-adv-x="280" 
d="M68 74c0 37 29 69 66 69s69 -32 69 -69c0 -38 -31 -68 -69 -68s-66 30 -66 68zM58 304c0 109 12 170 105 174h10v-62c-30 -3 -45 -9 -46 -44c43 -1 66 -24 66 -68c0 -39 -26 -59 -68 -59s-67 20 -67 59z" />
    <glyph glyph-name="afii57407" unicode="&#x61f;" horiz-adv-x="421" 
d="M263 12c-12 -12 -31 -17 -47 -17c-17 0 -33 6 -48 17h-1v1c-12 12 -19 27 -19 44c0 42 28 57 67 57s67 -16 67 -57c0 -16 -7 -30 -19 -44v-1zM212 515c-41 0 -71 -25 -71 -64c0 -17 4 -31 9 -41c28 -34 84 -83 101 -120v-1l12 -49l5 -68h-99l-1 10c0 34 -5 60 -14 79
c-2 4 -18 23 -44 50c-28 28 -48 51 -58 69c-11 18 -17 41 -17 68c0 98 76 159 173 159c84 0 151 -44 171 -111h1l6 -39l4 -59h-100v10c-2 76 -28 107 -78 107z" />
    <glyph glyph-name="afii57409" unicode="&#x621;" horiz-adv-x="390" 
d="M251 110c15 0 52 15 86 30l31 -65l-232 -97l-22 62l72 30c-22 16 -32 38 -32 73v1c3 52 48 98 103 98c29 0 52 -12 73 -30l-29 -61l-9 6c-14 9 -26 12 -33 12c-19 0 -30 -11 -30 -29c0 -17 9 -30 22 -30z" />
    <glyph glyph-name="afii52400" unicode="&#x622;" horiz-adv-x="325" 
d="M228 -4h-103v533h103v-533zM328 588h-203c-23 0 -38 -6 -48 -16c-12 -12 -25 -31 -36 -53l-81 30c20 46 40 86 58 99c29 24 52 32 102 33h208v-93z" />
    <glyph glyph-name="afii57411" unicode="&#x623;" horiz-adv-x="232" 
d="M159 738c11 0 48 9 76 23l22 -52l-197 -72l-15 51l40 15c-14 15 -20 29 -20 45c0 52 45 97 95 98c21 0 41 -9 58 -24l7 -5l-33 -47l-8 7c-8 7 -17 10 -28 10c-19 0 -33 -11 -33 -26c0 -14 14 -23 35 -23h1zM201 -5h-103v611h103v-611z" />
    <glyph glyph-name="afii57412" unicode="&#x624;" horiz-adv-x="432" 
d="M410 -13c0 -56 -23 -108 -69 -156s-103 -73 -170 -73h-124l-14 102h123c46 0 83 14 111 42s41 58 42 93h-4c-26 0 -103 1 -161 30c-53 26 -78 80 -78 156s18 133 58 168h1c26 21 64 31 114 31c72 0 124 -31 151 -91c14 -37 20 -99 20 -184v-118zM309 192
c0 55 -21 85 -70 85c-54 0 -65 -28 -65 -92c0 -38 10 -60 25 -70c15 -9 53 -17 110 -17v94zM215 528c11 0 48 9 76 23l22 -52l-197 -72l-15 51l40 15c-14 15 -20 29 -20 45c0 52 45 97 95 98c21 0 41 -9 58 -24l7 -5l-33 -47l-8 7c-8 7 -17 10 -28 10c-19 0 -33 -11 -33 -26
c0 -14 14 -23 35 -23h1z" />
    <glyph glyph-name="afii57413" unicode="&#x625;" horiz-adv-x="232" 
d="M201 -5h-103v611h103v-611zM147 -183c11 0 48 9 76 23l22 -52l-197 -72l-15 51l40 15c-14 15 -20 29 -20 45c0 52 45 97 95 98c21 0 41 -9 58 -24l7 -5l-33 -47l-8 7c-8 7 -17 10 -28 10c-19 0 -33 -11 -33 -26c0 -14 14 -23 35 -23h1z" />
    <glyph glyph-name="afii57414" unicode="&#x626;" horiz-adv-x="670" 
d="M501 247c-31 0 -51 -15 -66 -46h-1c-9 -9 -10 -62 -10 -98c81 0 136 -8 168 -23c36 -19 53 -57 53 -110c0 -41 -6 -75 -19 -100v-2h-1c-16 -16 -23 -53 -52 -81c-45 -43 -101 -65 -164 -65h-144c-61 0 -116 26 -161 75s-66 107 -66 173v197h97v-209c0 -40 17 -74 52 -104
c30 -21 61 -31 96 -31h122c31 0 62 11 91 32c33 29 48 56 48 86c0 32 -11 48 -32 55c-21 6 -81 11 -174 11h-10v164c0 91 78 172 169 172h119l5 -96h-120zM234 420c11 0 48 9 76 23l22 -52l-197 -72l-15 51l40 15c-14 15 -20 29 -20 45c0 52 45 97 95 98c21 0 41 -9 58 -24
l7 -5l-33 -47l-8 7c-8 7 -17 10 -28 10c-19 0 -33 -11 -33 -26c0 -14 14 -23 35 -23h1z" />
    <glyph glyph-name="afii57415.001" unicode="&#x627;" horiz-adv-x="232" 
d="M201 -5h-103v611h103v-611z" />
    <glyph glyph-name="afii57416" unicode="&#x628;" horiz-adv-x="828" 
d="M137 167c0 -51 12 -69 64 -69h438c52 0 65 15 65 69v132h103v-146c0 -41 -15 -79 -43 -110c-29 -31 -61 -48 -97 -48h-495c-78 0 -138 83 -138 158v146h103v-132zM416 -83c31 0 67 -28 67 -61c0 -34 -23 -74 -61 -74c-46 0 -74 28 -74 74c0 32 38 61 68 61z" />
    <glyph glyph-name="afii57417" unicode="&#x629;" horiz-adv-x="421" 
d="M216 83c43 0 80 36 80 78c0 20 -5 35 -12 44l-73 76c-31 -31 -52 -54 -65 -71l-1 -1c-3 -1 -7 -14 -8 -17l-6 -30c0 -10 6 -26 20 -48l1 -3c17 -19 38 -28 64 -28zM214 -16c-99 0 -181 86 -181 185c0 35 10 71 31 106c11 11 21 26 31 39l43 42l-27 33l70 70l173 -182
c30 -38 45 -77 45 -120c0 -44 -19 -85 -55 -120s-81 -53 -130 -53zM130 634c36 0 68 -32 68 -68c0 -31 -29 -67 -62 -67c-45 0 -74 28 -74 74c0 32 38 61 68 61zM273 634c36 0 68 -32 68 -68c0 -31 -28 -67 -61 -67c-46 0 -75 28 -75 74c0 33 37 61 68 61z" />
    <glyph glyph-name="afii57418" unicode="&#x62a;" horiz-adv-x="825" 
d="M137 167c0 -51 12 -69 64 -69h438c52 0 65 15 65 69v132h103v-146c0 -41 -15 -79 -43 -110c-29 -31 -61 -48 -97 -48h-495c-78 0 -138 83 -138 158v146h103v-132zM362 513c36 0 68 -32 68 -68c0 -31 -29 -67 -62 -67c-45 0 -74 28 -74 74c0 32 38 61 68 61zM505 513
c36 0 68 -32 68 -68c0 -31 -28 -67 -61 -67c-46 0 -75 28 -75 74c0 33 37 61 68 61z" />
    <glyph glyph-name="afii57419" unicode="&#x62b;" horiz-adv-x="829" 
d="M137 167c0 -51 12 -69 64 -69h438c52 0 65 15 65 69v132h103v-146c0 -41 -15 -79 -43 -110c-29 -31 -61 -48 -97 -48h-495c-78 0 -138 83 -138 158v146h103v-132zM489 514c36 0 68 -32 68 -68c0 -37 -32 -67 -68 -67c-37 0 -67 30 -67 67c0 36 31 68 67 68zM406 446
c0 -36 -32 -67 -68 -67c-37 0 -67 30 -67 67c0 36 31 68 67 68s68 -32 68 -68zM478 589c0 -36 -32 -68 -68 -68s-67 31 -67 68c0 36 31 67 67 67s68 -31 68 -67z" />
    <glyph glyph-name="afii57420" unicode="&#x62c;" horiz-adv-x="631" 
d="M418 -90c31 0 67 -28 67 -61c0 -34 -23 -74 -61 -74c-46 0 -74 28 -74 74c0 32 38 61 68 61zM650 -458h-261c-100 0 -182 35 -245 107c-46 56 -69 119 -69 187v20l2 21c10 88 56 155 137 198l285 155c-16 24 -34 37 -56 41c-24 4 -107 7 -245 7h-9l-15 101h233
c125 0 198 -70 199 -194v-6l-309 -175c-84 -47 -124 -104 -124 -171c0 -49 21 -92 62 -130c42 -39 84 -57 129 -57h277z" />
    <glyph glyph-name="afii57421" unicode="&#x62d;" horiz-adv-x="631" 
d="M650 -458h-261c-100 0 -182 35 -245 107c-46 56 -69 119 -69 187v20l2 21c10 88 56 155 137 198l285 155c-16 24 -34 37 -56 41c-24 4 -107 7 -245 7h-9l-15 101h233c125 0 198 -70 199 -194v-6l-309 -175c-84 -47 -124 -104 -124 -171c0 -49 21 -92 62 -130
c42 -39 84 -57 129 -57h277z" />
    <glyph glyph-name="afii57422" unicode="&#x62e;" horiz-adv-x="631" 
d="M650 -458h-261c-100 0 -182 35 -245 107c-46 56 -69 119 -69 187v20l2 21c10 88 56 155 137 198l285 155c-16 24 -34 37 -56 41c-24 4 -107 7 -245 7h-9l-15 101h233c125 0 198 -70 199 -194v-6l-309 -175c-84 -47 -124 -104 -124 -171c0 -49 21 -92 62 -130
c42 -39 84 -57 129 -57h277zM338 587c31 0 67 -28 67 -61c0 -34 -23 -74 -61 -74c-46 0 -74 28 -74 74c0 32 38 61 68 61z" />
    <glyph glyph-name="afii57423" unicode="&#x62f;" horiz-adv-x="535" 
d="M516 125c0 -82 -62 -130 -143 -130h-292l-14 103h301c37 0 49 11 49 32c0 11 -5 22 -15 31l-213 227l69 71l216 -228c28 -31 42 -67 42 -106z" />
    <glyph glyph-name="afii57424" unicode="&#x630;" horiz-adv-x="535" 
d="M516 125c0 -82 -62 -130 -143 -130h-292l-14 103h301c37 0 49 11 49 32c0 11 -5 22 -15 31l-213 227l69 71l216 -228c28 -31 42 -67 42 -106zM224 640c31 0 67 -28 67 -61c0 -34 -23 -74 -61 -74c-46 0 -74 28 -74 74c0 32 38 61 68 61z" />
    <glyph glyph-name="afii57425" unicode="&#x631;" horiz-adv-x="425" 
d="M128 -136c66 0 114 22 144 59c16 20 24 43 24 70v306h107v-282c0 -69 -24 -130 -69 -181c-46 -52 -102 -78 -170 -78h-128l-18 106h110z" />
    <glyph glyph-name="afii57426" unicode="&#x632;" horiz-adv-x="425" 
d="M128 -136c66 0 114 22 144 59c16 20 24 43 24 70v306h107v-282c0 -69 -24 -130 -69 -181c-46 -52 -102 -78 -170 -78h-128l-18 106h110zM302 519c31 0 67 -28 67 -61c0 -34 -23 -74 -61 -74c-46 0 -74 28 -74 74c0 32 38 61 68 61z" />
    <glyph glyph-name="afii57427" unicode="&#x633;" horiz-adv-x="1150" 
d="M1131 150c0 -95 -69 -157 -166 -157c-38 0 -77 19 -117 51c-33 -34 -73 -51 -121 -51c-23 0 -48 12 -72 32c-2 -76 -25 -140 -69 -189c-46 -51 -102 -78 -168 -78h-143c-63 0 -118 25 -165 74s-70 107 -70 174v199h101v-204c0 -80 65 -141 146 -141h120
c83 0 145 59 145 141v298h103v-144c0 -31 35 -59 69 -59c49 0 69 19 69 59v144h105v-143c0 -30 33 -60 65 -60c46 0 65 18 65 55v148h103v-149z" />
    <glyph glyph-name="afii57428" unicode="&#x634;" horiz-adv-x="1148" 
d="M1131 150c0 -95 -69 -157 -166 -157c-38 0 -77 19 -117 51c-33 -34 -73 -51 -121 -51c-23 0 -48 12 -72 32c-2 -76 -25 -140 -69 -189c-46 -51 -102 -78 -168 -78h-143c-63 0 -118 25 -165 74s-70 107 -70 174v199h101v-204c0 -80 65 -141 146 -141h120
c83 0 145 59 145 141v298h103v-144c0 -31 35 -59 69 -59c49 0 69 19 69 59v144h105v-143c0 -30 33 -60 65 -60c46 0 65 18 65 55v148h103v-149zM924 510c36 0 68 -32 68 -68c0 -37 -32 -67 -68 -67c-37 0 -67 30 -67 67c0 36 31 68 67 68zM841 442c0 -36 -32 -67 -68 -67
c-37 0 -67 30 -67 67c0 36 31 68 67 68s68 -32 68 -68zM913 585c0 -36 -32 -68 -68 -68s-67 31 -67 68c0 36 31 67 67 67s68 -31 68 -67z" />
    <glyph glyph-name="afii57429" unicode="&#x635;" horiz-adv-x="1185" 
d="M1028 268v2c-2 4 -6 7 -17 7c-24 0 -55 -18 -92 -57c-33 -36 -62 -77 -86 -122h175c30 0 54 41 54 79c0 31 -11 62 -34 91zM644 32c-6 -142 -98 -274 -238 -274h-143c-64 0 -120 27 -166 79c-46 51 -70 112 -70 180v188h102v-212c0 -28 14 -57 45 -86
c31 -30 63 -43 97 -43h131c34 0 66 13 95 41s43 57 43 88v306h105v-144c0 -37 23 -56 83 -57c14 24 116 203 120 207c46 49 94 74 144 74c25 0 50 -8 75 -23c29 -17 53 -43 70 -79l19 -55v-1c5 -17 7 -34 7 -54c0 -103 -68 -172 -171 -172h-254c-44 0 -76 12 -94 37z" />
    <glyph glyph-name="afii57430" unicode="&#x636;" horiz-adv-x="1185" 
d="M1028 268v2c-2 4 -6 7 -17 7c-24 0 -55 -18 -92 -57c-33 -36 -62 -77 -86 -122h175c30 0 54 41 54 79c0 31 -11 62 -34 91zM644 32c-6 -142 -98 -274 -238 -274h-143c-64 0 -120 27 -166 79c-46 51 -70 112 -70 180v188h102v-212c0 -28 14 -57 45 -86
c31 -30 63 -43 97 -43h131c34 0 66 13 95 41s43 57 43 88v306h105v-144c0 -37 23 -56 83 -57c14 24 116 203 120 207c46 49 94 74 144 74c25 0 50 -8 75 -23c29 -17 53 -43 70 -79l19 -55v-1c5 -17 7 -34 7 -54c0 -103 -68 -172 -171 -172h-254c-44 0 -76 12 -94 37z
M743 555c31 0 67 -28 67 -61c0 -34 -23 -74 -61 -74c-46 0 -74 28 -74 74c0 32 38 61 68 61z" />
    <glyph glyph-name="afii57431" unicode="&#x637;" horiz-adv-x="533" 
d="M367 -5h-329l-20 103h78v508h102v-327c55 65 106 100 156 100c21 0 46 -8 74 -23c58 -32 90 -111 90 -186c0 -90 -46 -175 -151 -175zM365 275c-22 0 -53 -18 -90 -58c-31 -30 -58 -71 -80 -119h172c28 0 50 48 50 90c0 40 -10 65 -27 80c-3 2 -13 5 -25 7z" />
    <glyph glyph-name="afii57432" unicode="&#x638;" horiz-adv-x="535" 
d="M367 -5h-329l-20 103h78v508h102v-327c55 65 106 100 156 100c21 0 46 -8 74 -23c58 -32 90 -111 90 -186c0 -90 -46 -175 -151 -175zM365 275c-22 0 -53 -18 -90 -58c-31 -30 -58 -71 -80 -119h172c28 0 50 48 50 90c0 40 -10 65 -27 80c-3 2 -13 5 -25 7zM355 581
c31 0 67 -28 67 -61c0 -34 -23 -74 -61 -74c-46 0 -74 28 -74 74c0 32 38 61 68 61z" />
    <glyph glyph-name="afii57433" unicode="&#x639;" horiz-adv-x="625" 
d="M58 -165c0 137 87 223 194 268c-19 40 -28 74 -28 106c0 51 17 92 51 126c38 29 84 44 134 44s101 -24 155 -70l7 -5l-49 -79l-9 6c-50 35 -91 51 -121 51c-32 0 -51 -15 -61 -47c-1 -5 0 -14 -5 -21v-14c0 -16 3 -34 11 -54c16 -34 36 -48 62 -48h190l14 -103h-317
c-78 0 -125 -78 -125 -164c0 -48 16 -90 48 -128s76 -57 136 -57h259l15 -104h-252c-88 0 -163 31 -225 93c-56 57 -84 124 -84 200z" />
    <glyph glyph-name="afii57434" unicode="&#x63a;" horiz-adv-x="625" 
d="M58 -165c0 137 87 223 194 268c-19 40 -28 74 -28 106c0 51 17 92 51 126c38 29 84 44 134 44s101 -24 155 -70l7 -5l-49 -79l-9 6c-50 35 -91 51 -121 51c-32 0 -51 -15 -61 -47c-1 -5 0 -14 -5 -21v-14c0 -16 3 -34 11 -54c16 -34 36 -48 62 -48h190l14 -103h-317
c-78 0 -125 -78 -125 -164c0 -48 16 -90 48 -128s76 -57 136 -57h259l15 -104h-252c-88 0 -163 31 -225 93c-56 57 -84 124 -84 200zM412 576c31 0 67 -28 67 -61c0 -34 -23 -74 -61 -74c-46 0 -74 28 -74 74c0 32 38 61 68 61z" />
    <glyph glyph-name="afii57440" unicode="&#x640;" horiz-adv-x="243" 
d="M263 -5h-279v103h279v-103z" />
    <glyph glyph-name="afii57441" unicode="&#x641;" horiz-adv-x="836" 
d="M618 353c-43 0 -66 -16 -66 -54c0 -23 11 -34 31 -39l37 -4h84c-1 30 -12 55 -30 75c-17 15 -35 22 -56 22zM623 457c100 0 179 -83 179 -182l3 -104c0 -63 -20 -111 -60 -143c-28 -22 -58 -33 -91 -33h-486c-37 0 -73 18 -103 48c-24 31 -36 68 -36 110v146h102v-132
c0 -55 11 -69 65 -69h448c28 0 44 7 51 16c1 6 5 21 10 46c-95 0 -157 8 -193 26h-1c-33 19 -47 60 -47 117c0 93 66 154 159 154zM631 651c31 0 67 -28 67 -61c0 -34 -23 -74 -61 -74c-46 0 -74 28 -74 74c0 32 38 61 68 61z" />
    <glyph glyph-name="afii57442" unicode="&#x642;" horiz-adv-x="697" 
d="M331 133c0 91 71 153 161 153c50 0 94 -19 128 -57c34 -37 50 -81 50 -131v-83l-2 -35l-2 -40v-1c-10 -62 -39 -113 -88 -150c-45 -32 -92 -47 -144 -47h-143c-66 0 -122 25 -165 74s-65 108 -65 177v133h96v-136c0 -83 60 -150 141 -150h130c83 0 142 68 144 155
c-16 0 -44 -1 -83 -1c-34 0 -61 3 -80 8h-1c-52 18 -77 64 -77 131zM491 184c-18 0 -43 -3 -53 -13h-1c-11 -10 -15 -19 -15 -32c0 -43 18 -45 73 -45c16 0 41 1 76 2c-2 45 -39 88 -80 88zM416 482c36 0 68 -32 68 -68c0 -31 -29 -67 -62 -67c-45 0 -74 28 -74 74
c0 32 38 61 68 61zM559 482c36 0 68 -32 68 -68c0 -31 -28 -67 -61 -67c-46 0 -75 28 -75 74c0 33 37 61 68 61z" />
    <glyph glyph-name="afii57443" unicode="&#x643;" horiz-adv-x="797" 
d="M620 98c55 0 61 26 61 86v422h100v-461c0 -95 -61 -150 -155 -150h-455c-38 0 -72 16 -99 47v1h-1c-25 31 -37 68 -37 110v146h103v-132c0 -54 12 -69 64 -69h419zM430 421l-40 30c-4 -7 -5 -11 -5 -13c0 -17 5 -22 19 -22c6 0 15 1 26 5zM412 533h3c18 -3 43 -14 64 -23
l-31 -65l-9 7c-13 9 -23 13 -28 13c-3 0 -6 -1 -8 -1l30 -42c15 6 36 17 56 26l33 -62l-189 -95l-26 61l38 20c-19 20 -29 42 -29 64c0 53 44 96 96 97z" />
    <glyph glyph-name="afii57444" unicode="&#x644;" horiz-adv-x="683" 
d="M149 -7c0 -37 15 -66 45 -91c31 -25 65 -38 104 -38h119c34 0 63 12 91 37h1c35 27 51 56 51 92v613h104v-593c0 -76 -25 -138 -75 -185c-48 -46 -104 -70 -165 -70h-144c-59 0 -113 27 -162 78s-73 108 -73 170v199h104v-212z" />
    <glyph glyph-name="afii57445" unicode="&#x645;" horiz-adv-x="587" 
d="M471 162c0 59 -9 90 -16 97c-11 10 -52 19 -123 19v-125c0 -15 7 -29 21 -41c18 -13 34 -18 50 -18c47 0 68 21 68 68zM35 179c0 117 73 200 190 200h191c62 0 108 -22 134 -67l1 -1c14 -27 20 -68 20 -122c0 -7 -1 -18 -1 -33c0 -47 -17 -87 -51 -117
c-33 -31 -72 -46 -116 -46s-84 15 -118 46c-36 31 -53 75 -53 130v109l-12 1c-18 0 -36 -9 -56 -26c-19 -17 -27 -36 -27 -61v-434h-102v421z" />
    <glyph glyph-name="afii57446" unicode="&#x646;" horiz-adv-x="674" 
d="M649 16c0 -75 -25 -138 -75 -191v-1c-46 -44 -102 -66 -165 -66h-144c-60 0 -114 26 -160 76c-46 49 -70 108 -70 172v199h102v-212c0 -33 13 -63 40 -91s62 -42 106 -42h120c37 0 70 13 100 38s44 56 44 95v306h102v-283zM418 430c0 -31 -27 -68 -60 -68
c-40 0 -74 24 -74 67c0 36 30 69 67 69c36 0 67 -32 67 -68z" />
    <glyph glyph-name="afii57447" unicode="&#x647;" horiz-adv-x="421" 
d="M216 83c43 0 80 36 80 78c0 20 -5 35 -12 44l-73 76c-31 -31 -52 -54 -65 -71l-1 -1c-3 -1 -7 -14 -8 -17l-6 -30c0 -10 6 -26 20 -48l1 -3c17 -19 38 -28 64 -28zM214 -16c-99 0 -181 86 -181 185c0 35 10 71 31 106c11 11 21 26 31 39l43 42l-27 33l70 70l173 -182
c30 -38 45 -77 45 -120c0 -44 -19 -85 -55 -120s-81 -53 -130 -53z" />
    <glyph glyph-name="afii57448" unicode="&#x648;" horiz-adv-x="432" 
d="M410 -13c0 -56 -23 -108 -69 -156s-103 -73 -170 -73h-124l-14 102h123c46 0 83 14 111 42s41 58 42 93h-4c-26 0 -103 1 -161 30c-53 26 -78 80 -78 156s18 133 58 168h1c26 21 64 31 114 31c72 0 124 -31 151 -91c14 -37 20 -99 20 -184v-118zM309 192
c0 55 -21 85 -70 85c-54 0 -65 -28 -65 -92c0 -38 10 -60 25 -70c15 -9 53 -17 110 -17v94z" />
    <glyph glyph-name="afii57449" unicode="&#x649;" horiz-adv-x="670" 
d="M501 247c-31 0 -51 -15 -66 -46h-1c-9 -9 -10 -62 -10 -98c81 0 136 -8 168 -23c36 -19 53 -57 53 -110c0 -41 -6 -75 -19 -100v-2h-1c-16 -16 -23 -53 -52 -81c-45 -43 -101 -65 -164 -65h-144c-61 0 -116 26 -161 75s-66 107 -66 173v197h97v-209c0 -40 17 -74 52 -104
c30 -21 61 -31 96 -31h122c31 0 62 11 91 32c33 29 48 56 48 86c0 32 -11 48 -32 55c-21 6 -81 11 -174 11h-10v164c0 91 78 172 169 172h119l5 -96h-120z" />
    <glyph glyph-name="afii57450" unicode="&#x64a;" horiz-adv-x="670" 
d="M501 247c-31 0 -51 -15 -66 -46h-1c-9 -9 -10 -62 -10 -98c81 0 136 -8 168 -23c36 -19 53 -57 53 -110c0 -41 -6 -75 -19 -100v-2h-1c-16 -16 -23 -53 -52 -81c-45 -43 -101 -65 -164 -65h-144c-61 0 -116 26 -161 75s-66 107 -66 173v197h97v-209c0 -40 17 -74 52 -104
c30 -21 61 -31 96 -31h122c31 0 62 11 91 32c33 29 48 56 48 86c0 32 -11 48 -32 55c-21 6 -81 11 -174 11h-10v164c0 91 78 172 169 172h119l5 -96h-120zM253 -334c36 0 68 -32 68 -68c0 -31 -29 -67 -62 -67c-45 0 -74 28 -74 74c0 32 38 61 68 61zM396 -334
c36 0 68 -32 68 -68c0 -31 -28 -67 -61 -67c-46 0 -75 28 -75 74c0 33 37 61 68 61z" />
    <glyph glyph-name="afii57451" unicode="&#x64b;" 
d="M-123 45l233 60v-50l-233 -59v49zM-123 119l233 60v-50l-233 -59v49z" />
    <glyph glyph-name="afii57452" unicode="&#x64c;" 
d="M-176 132c17 2 36 5 50 5c40 0 64 -15 71 -48l25 15c-20 13 -34 32 -34 63c0 44 34 83 80 83c42 0 79 -35 79 -78v-3c0 -36 -14 -64 -42 -83v-1l-171 -96l-30 49l9 5c13 7 21 13 27 17c7 5 10 10 10 16c0 7 -3 8 -12 9h-3c-11 0 -25 -1 -42 -4l-10 -2zM41 167
c0 13 -12 26 -25 26c-14 0 -26 -12 -26 -26c0 -13 12 -25 26 -25s25 11 25 25z" />
    <glyph glyph-name="afii57453" unicode="&#x64d;" 
d="M-123 -29l233 61v-50l-233 -59v48zM-123 45l233 60v-50l-233 -59v49z" />
    <glyph glyph-name="afii57454" unicode="&#x64e;" 
d="M-123 45l233 60v-50l-233 -59v49z" />
    <glyph glyph-name="afii57455" unicode="&#x64f;" 
d="M-62 173c0 44 35 83 80 83c42 0 79 -36 79 -78v-3c0 -36 -14 -64 -42 -83l-172 -97l-29 49l117 66c-23 14 -33 36 -33 63zM42 173c0 14 -11 26 -24 26c-14 0 -26 -13 -26 -26c0 -14 12 -25 26 -25s24 11 24 25z" />
    <glyph glyph-name="afii57456" unicode="&#x650;" 
d="M-123 45l233 60v-50l-233 -59v49z" />
    <glyph glyph-name="afii57457" unicode="&#x651;" 
d="M105 60c-1 -20 -4 -35 -15 -42h-2c-7 0 -21 -18 -40 -18h-2c-16 0 -32 7 -45 17c-11 -13 -24 -18 -45 -18c-40 0 -64 22 -64 62v58h48v-60c1 -6 4 -10 18 -10c12 0 16 4 16 10v60h48v-60c0 -8 3 -12 19 -12h5c9 0 9 1 9 8v64h50v-59z" />
    <glyph glyph-name="afii57458" unicode="&#x652;" 
d="M-98 101c0 55 41 104 97 104h4c56 0 97 -50 97 -104c0 -56 -43 -103 -100 -103s-98 47 -98 103zM48 100c0 26 -22 50 -47 50c-23 0 -45 -25 -45 -50c0 -26 20 -50 45 -50s47 24 47 50z" />
    <glyph glyph-name="afii57375" unicode="&#x653;" horiz-adv-x="461" 
d="M402 659h-203c-23 0 -38 -6 -48 -16c-12 -12 -25 -31 -36 -53l-81 30c20 46 40 86 58 99c29 24 52 32 102 33h208v-93z" />
    <glyph glyph-name="uni0654" unicode="&#x654;" 
d="M31 629c11 0 48 9 76 23l22 -52l-197 -72l-15 51l40 15c-14 15 -20 29 -20 45c0 52 45 97 95 98c21 0 41 -9 58 -24l7 -5l-33 -47l-8 7c-8 7 -17 10 -28 10c-19 0 -33 -11 -33 -26c0 -14 14 -23 35 -23h1z" />
    <glyph glyph-name="uni0655" unicode="&#x655;" 
d="M30 628c11 0 48 9 76 23l22 -52l-197 -72l-15 51l40 15c-14 15 -20 29 -20 45c0 52 45 97 95 98c21 0 41 -9 58 -24l7 -5l-33 -47l-8 7c-8 7 -17 10 -28 10c-19 0 -33 -11 -33 -26c0 -14 14 -23 35 -23h1z" />
    <glyph glyph-name="uni0656" unicode="&#x656;" 
d="M28 -3h-52v153h52v-153z" />
    <glyph glyph-name="afii57392.001" unicode="&#x660;" horiz-adv-x="309" 
d="M157 301c-24 0 -45 -21 -45 -44s21 -43 45 -43c28 0 45 21 45 43c0 24 -21 44 -45 44zM262 257c0 -56 -50 -102 -105 -102c-56 0 -104 46 -104 102c0 57 48 102 104 102c55 0 105 -46 105 -102z" />
    <glyph glyph-name="afii57393.001" unicode="&#x661;" horiz-adv-x="282" 
d="M106 287c0 113 -12 193 -46 296l99 33l33 -133c10 -67 15 -132 15 -196v-292h-101v292z" />
    <glyph glyph-name="afii57394.001" unicode="&#x662;" horiz-adv-x="508" 
d="M349 473c0 36 -9 77 -14 114l95 31l2 -11c11 -75 16 -119 16 -134l1 -34c0 -45 -18 -79 -52 -98c-32 -18 -58 -29 -81 -29h-24c-19 0 -43 8 -67 21l2 -336h-103v278c0 126 -14 226 -41 299l-4 9l99 35l38 -161c9 -38 29 -54 65 -54c40 0 68 29 68 70z" />
    <glyph glyph-name="afii57395.001" unicode="&#x663;" horiz-adv-x="641" 
d="M68 275c0 118 -18 218 -48 308l101 35l37 -161c10 -38 31 -54 66 -54c38 0 70 32 70 70c0 35 -14 76 -19 113l97 36l2 -11c13 -73 21 -126 21 -161l-2 -23c14 -19 29 -28 50 -28c42 0 66 30 66 74c0 37 -10 76 -15 114l98 31l15 -133l1 -26c0 -34 -12 -72 -38 -98
c-29 -26 -62 -40 -100 -40h-12c-43 0 -78 20 -103 58c-16 -42 -46 -65 -100 -65c-32 0 -61 9 -87 24l1 -341h-101v278z" />
    <glyph glyph-name="afii57396" unicode="&#x664;" horiz-adv-x="539" 
d="M122 608c32 32 77 47 117 47c39 0 80 -10 126 -28l10 -4l-5 -10c-8 -16 -15 -38 -21 -63l-3 -10l-10 4c-36 13 -63 19 -83 19c-44 0 -79 -29 -79 -71c0 -48 34 -84 78 -85h3c20 0 57 13 108 41l10 5l36 -87l-9 -4c-103 -52 -168 -87 -193 -105c-27 -20 -46 -37 -54 -48
c-9 -11 -13 -22 -14 -35c0 -43 35 -71 72 -80l230 -4l-6 -95l-208 3c-3 0 -15 -1 -19 -1c-95 0 -174 67 -174 163c0 84 63 147 119 183c-40 32 -83 83 -83 148v9c0 40 19 75 52 105v3z" />
    <glyph glyph-name="afii57397" unicode="&#x665;" horiz-adv-x="651" 
d="M315 86c91 0 160 10 160 90c0 30 -13 64 -42 103c-23 30 -69 76 -138 136c-49 -57 -83 -105 -105 -144c-19 -36 -28 -68 -28 -94c0 -13 1 -31 7 -43c26 -37 73 -48 146 -48zM336 -13c-111 0 -194 17 -254 77v1c-18 28 -28 58 -28 88c0 33 4 63 13 87
c30 82 106 192 151 238l2 4l-2 17l-4 7l-14 9l51 63l8 -5c214 -162 324 -300 324 -415c0 -96 -65 -148 -149 -161c-44 -6 -77 -10 -98 -10z" />
    <glyph glyph-name="afii57398" unicode="&#x666;" horiz-adv-x="500" 
d="M39 557c0 17 1 35 4 49h109l-1 -11c-1 -7 -2 -13 -2 -18c0 -46 25 -67 83 -67c71 2 95 44 112 111l101 -14l-4 -12c-33 -96 -50 -269 -50 -520v-39c0 -12 1 -24 1 -33l1 -10l-103 6c-4 30 -4 63 -4 91v68c2 85 7 174 16 265c-33 -15 -64 -23 -93 -23
c-69 0 -131 44 -153 93c-11 24 -17 45 -17 64z" />
    <glyph glyph-name="afii57399.001" unicode="&#x667;" horiz-adv-x="628" 
d="M57 576l48 21l37 25l6 -9c56 -94 94 -167 116 -219c21 -49 42 -113 64 -192c20 87 39 146 56 183c29 58 57 123 88 178c8 15 18 31 29 50l5 9l40 -25l44 -23l-5 -9c-67 -110 -116 -214 -147 -314c-28 -90 -50 -173 -72 -250h-79l-2 7c-53 222 -126 409 -221 559z" />
    <glyph glyph-name="afii57400.001" unicode="&#x668;" horiz-adv-x="628" 
d="M585 45l-48 -21l-37 -25l-5 9c-57 96 -96 169 -117 219c-21 49 -42 114 -64 193c-31 -131 -51 -186 -108 -295c-16 -31 -38 -70 -65 -117l-5 -9l-40 25l-45 23l6 9c67 111 116 215 147 315c29 93 53 173 72 250h78l2 -8c53 -222 128 -408 223 -558z" />
    <glyph glyph-name="afii57401.001" unicode="&#x669;" horiz-adv-x="520" 
d="M170 462c0 -50 15 -67 63 -67h1c28 0 55 8 78 24c-4 63 -13 100 -69 100h-1c-31 0 -50 -8 -58 -20c-10 -14 -14 -27 -14 -37zM420 -3h-100v319l-50 -16h-1c-22 -4 -41 -6 -57 -6c-47 0 -83 15 -106 44c-25 25 -36 58 -36 101c0 63 17 111 53 140c35 28 71 43 108 43
c36 0 70 -10 103 -28s55 -52 66 -96c19 -78 20 -95 20 -191v-310z" />
    <glyph glyph-name="afii57381" unicode="&#x66a;" horiz-adv-x="528" 
d="M452 61c0 -35 -30 -64 -65 -64s-63 29 -63 64c0 34 28 64 63 64s65 -29 65 -64zM178 542c0 -35 -31 -63 -65 -63s-63 29 -63 63s29 64 63 64c35 0 65 -29 65 -64zM478 612l-341 -619h-89l337 619h93z" />
    <glyph glyph-name="afii57461" unicode="&#x66b;" horiz-adv-x="482" 
d="M456 301l-342 -619h-89l338 619h93z" />
    <glyph glyph-name="afii57388.001" unicode="&#x66c;" horiz-adv-x="144" 
d="M53 362c0 16 14 39 34 39c21 0 29 -19 29 -41c0 -26 -9 -57 -26 -94v-1c-1 -4 -6 -23 -17 -27l-23 -7l11 21c16 31 23 56 23 74c-6 4 -31 14 -31 36z" />
    <glyph glyph-name="afii63167" unicode="&#x66d;" horiz-adv-x="458" 
d="M296 304l142 1v-59h-138l105 -101l-43 -44l-104 108l2 -145h-61l2 145l-104 -108l-43 44l107 102l-140 -1v59l140 -1l-98 96l42 44l96 -98l-2 141h61l-2 -142l95 99l42 -44z" />
    <glyph glyph-name="uni0670" unicode="&#x670;" 
d="M28 -3h-52v153h52v-153z" />
    <glyph glyph-name="uni0671" unicode="&#x671;" horiz-adv-x="232" 
d="M201 -5h-103v611h103v-611zM183 704c-1 14 -3 15 -10 15c-1 0 -9 -2 -17 -7l-20 -18h47v10zM173 759c37 0 49 -26 50 -59v-1l-1 -45h-173v40h31l56 48c13 11 25 17 37 17z" />
    <glyph glyph-name="uni0672" unicode="&#x672;" horiz-adv-x="232" 
d="M201 -5h-103v611h103v-611zM153 733c11 0 48 9 76 23l22 -52l-197 -72l-15 51l40 15c-14 15 -20 29 -20 45c0 52 45 97 95 98c21 0 41 -9 58 -24l7 -5l-33 -47l-8 7c-8 7 -17 10 -28 10c-19 0 -33 -11 -33 -26c0 -14 14 -23 35 -23h1z" />
    <glyph glyph-name="uni0673" unicode="&#x673;" horiz-adv-x="232" 
d="M201 -5h-103v611h103v-611zM153 -162c11 0 48 9 76 23l22 -52l-197 -72l-15 51l40 15c-14 15 -20 29 -20 45c0 52 45 97 95 98c21 0 41 -9 58 -24l7 -5l-33 -47l-8 7c-8 7 -17 10 -28 10c-19 0 -33 -11 -33 -26c0 -14 14 -23 35 -23h1z" />
    <glyph glyph-name="uni0675" unicode="&#x675;" horiz-adv-x="162" 
d="M201 -5h-103v611h103v-611zM160 995c11 0 48 9 76 23l22 -52l-197 -72l-15 51l40 15c-14 15 -20 29 -20 45c0 52 45 97 95 98c21 0 41 -9 58 -24l7 -5l-33 -47l-8 7c-8 7 -17 10 -28 10c-19 0 -33 -11 -33 -26c0 -14 14 -23 35 -23h1z" />
    <glyph glyph-name="uni0676" unicode="&#x676;" horiz-adv-x="432" 
d="M410 -13c0 -56 -23 -108 -69 -156s-103 -73 -170 -73h-124l-14 102h123c46 0 83 14 111 42s41 58 42 93h-4c-26 0 -103 1 -161 30c-53 26 -78 80 -78 156s18 133 58 168h1c26 21 64 31 114 31c72 0 124 -31 151 -91c14 -37 20 -99 20 -184v-118zM309 192
c0 55 -21 85 -70 85c-54 0 -65 -28 -65 -92c0 -38 10 -60 25 -70c15 -9 53 -17 110 -17v94zM252 549c11 0 48 9 76 23l22 -52l-197 -72l-15 51l40 15c-14 15 -20 29 -20 45c0 52 45 97 95 98c21 0 41 -9 58 -24l7 -5l-33 -47l-8 7c-8 7 -17 10 -28 10c-19 0 -33 -11 -33 -26
c0 -14 14 -23 35 -23h1z" />
    <glyph glyph-name="uni0678" unicode="&#x678;" horiz-adv-x="670" 
d="M501 247c-31 0 -51 -15 -66 -46h-1c-9 -9 -10 -62 -10 -98c81 0 136 -8 168 -23c36 -19 53 -57 53 -110c0 -41 -6 -75 -19 -100v-2h-1c-16 -16 -23 -53 -52 -81c-45 -43 -101 -65 -164 -65h-144c-61 0 -116 26 -161 75s-66 107 -66 173v197h97v-209c0 -40 17 -74 52 -104
c30 -21 61 -31 96 -31h122c31 0 62 11 91 32c33 29 48 56 48 86c0 32 -11 48 -32 55c-21 6 -81 11 -174 11h-10v164c0 91 78 172 169 172h119l5 -96h-120zM194 364c11 0 48 9 76 23l22 -52l-197 -72l-15 51l40 15c-14 15 -20 29 -20 45c0 52 45 97 95 98c21 0 41 -9 58 -24
l7 -5l-33 -47l-8 7c-8 7 -17 10 -28 10c-19 0 -33 -11 -33 -26c0 -14 14 -23 35 -23h1z" />
    <glyph glyph-name="afii57506" unicode="&#x67e;" horiz-adv-x="831" 
d="M137 167c0 -51 12 -69 64 -69h438c52 0 65 15 65 69v132h103v-146c0 -41 -15 -79 -43 -110c-29 -31 -61 -48 -97 -48h-495c-78 0 -138 83 -138 158v146h103v-132zM490 -84c36 0 68 -31 68 -67c0 -37 -31 -68 -68 -68s-67 31 -67 68c0 36 30 67 67 67zM407 -151
c0 -36 -32 -68 -68 -68c-37 0 -67 31 -67 68c0 36 31 67 67 67s68 -31 68 -67zM479 -294c0 -36 -32 -67 -68 -67c-37 0 -67 30 -67 67c0 36 31 68 67 68s68 -32 68 -68z" />
    <glyph glyph-name="afii57507" unicode="&#x686;" horiz-adv-x="631" 
d="M650 -458h-261c-100 0 -182 35 -245 107c-46 56 -69 119 -69 187v20l2 21c10 88 56 155 137 198l285 155c-16 24 -34 37 -56 41c-24 4 -107 7 -245 7h-9l-15 101h233c125 0 198 -70 199 -194v-6l-309 -175c-84 -47 -124 -104 -124 -171c0 -49 21 -92 62 -130
c42 -39 84 -57 129 -57h277zM505 -33c36 0 68 -31 68 -67c0 -37 -31 -68 -68 -68s-67 31 -67 68c0 36 30 67 67 67zM422 -100c0 -36 -32 -68 -68 -68c-37 0 -67 31 -67 68c0 36 31 67 67 67s68 -31 68 -67zM494 -243c0 -36 -32 -67 -68 -67c-37 0 -67 30 -67 67
c0 36 31 68 67 68s68 -32 68 -68z" />
    <glyph glyph-name="afii57508" unicode="&#x698;" horiz-adv-x="434" 
d="M128 -136c66 0 114 22 144 59c16 20 24 43 24 70v306h107v-282c0 -69 -24 -130 -69 -181c-46 -52 -102 -78 -170 -78h-128l-18 106h110zM359 513c36 0 68 -32 68 -68c0 -37 -32 -67 -68 -67c-37 0 -67 30 -67 67c0 36 31 68 67 68zM276 445c0 -36 -32 -67 -68 -67
c-37 0 -67 30 -67 67c0 36 31 68 67 68s68 -32 68 -68zM348 588c0 -36 -32 -68 -68 -68s-67 31 -67 68c0 36 31 67 67 67s68 -31 68 -67z" />
    <glyph glyph-name="afii62888" unicode="&#x6a1;" horiz-adv-x="836" 
d="M618 353c-43 0 -66 -16 -66 -54c0 -23 11 -34 31 -39l37 -4h84c-1 30 -12 55 -30 75c-17 15 -35 22 -56 22zM623 457c100 0 179 -83 179 -182l3 -104c0 -63 -20 -111 -60 -143c-28 -22 -58 -33 -91 -33h-486c-37 0 -73 18 -103 48c-24 31 -36 68 -36 110v146h102v-132
c0 -55 11 -69 65 -69h448c28 0 44 7 51 16c1 6 5 21 10 46c-95 0 -157 8 -193 26h-1c-33 19 -47 60 -47 117c0 93 66 154 159 154z" />
    <glyph glyph-name="afii57567" unicode="&#x6a9;" horiz-adv-x="824" 
d="M171 -5c-81 0 -137 79 -137 158v146h103v-132c0 -54 12 -69 64 -69h449c32 0 44 12 44 39c0 13 -4 23 -13 32l-246 255l-23 98l385 145l13 -99l-270 -103l218 -228c29 -31 43 -68 44 -111c0 -28 -12 -55 -31 -79c-25 -34 -65 -52 -118 -52h-482z" />
    <glyph glyph-name="afii57509" unicode="&#x6af;" horiz-adv-x="821" 
d="M171 -5c-81 0 -137 79 -137 158v146h103v-132c0 -54 12 -69 64 -69h449c32 0 44 12 44 39c0 13 -4 23 -13 32l-246 255l-6 106l369 135l12 -97l-270 -103l218 -228c29 -32 44 -69 44 -111c0 -26 -11 -53 -31 -79c-26 -35 -65 -52 -118 -52h-482zM791 705l-362 -130l-6 54
l364 128z" />
    <glyph glyph-name="afii57470" unicode="&#x6be;" horiz-adv-x="596" 
d="M281 216c0 38 -36 70 -76 70c-32 0 -49 -28 -51 -64c0 -37 23 -64 71 -84c39 17 56 42 56 78zM466 118c0 30 -30 82 -95 152c6 -17 9 -37 9 -59c0 -56 -17 -98 -52 -121c14 -8 47 -24 78 -24c22 0 38 8 50 21c4 9 8 20 10 31zM60 222c0 87 67 158 153 158
c25 0 49 -6 72 -18l-19 19l-7 8l78 69l7 -6c150 -146 228 -254 228 -328c0 -24 -7 -51 -23 -79h-1c-35 -57 -79 -87 -131 -87c-51 0 -116 25 -195 71c-31 -16 -56 -26 -77 -28l-58 -4l-108 -2v103h125c-17 24 -28 42 -34 58l-9 31z" />
    <glyph glyph-name="uni06C0" unicode="&#x6c0;" horiz-adv-x="421" 
d="M216 83c43 0 80 36 80 78c0 20 -5 35 -12 44l-73 76c-31 -31 -52 -54 -65 -71l-1 -1c-3 -1 -7 -14 -8 -17l-6 -30c0 -10 6 -26 20 -48l1 -3c17 -19 38 -28 64 -28zM214 -16c-99 0 -181 86 -181 185c0 35 10 71 31 106c11 11 21 26 31 39l43 42l-27 33l70 70l173 -182
c30 -38 45 -77 45 -120c0 -44 -19 -85 -55 -120s-81 -53 -130 -53zM218 599c11 0 48 9 76 23l22 -52l-197 -72l-15 51l40 15c-14 15 -20 29 -20 45c0 52 45 97 95 98c21 0 41 -9 58 -24l7 -5l-33 -47l-8 7c-8 7 -17 10 -28 10c-19 0 -33 -11 -33 -26c0 -14 14 -23 35 -23h1z
" />
    <glyph glyph-name="afii57555" unicode="&#x6cc;" horiz-adv-x="670" 
d="M501 247c-31 0 -51 -15 -66 -46h-1c-9 -9 -10 -62 -10 -98c81 0 136 -8 168 -23c36 -19 53 -57 53 -110c0 -41 -6 -75 -19 -100v-2h-1c-16 -16 -23 -53 -52 -81c-45 -43 -101 -65 -164 -65h-144c-61 0 -116 26 -161 75s-66 107 -66 173v197h97v-209c0 -40 17 -74 52 -104
c30 -21 61 -31 96 -31h122c31 0 62 11 91 32c33 29 48 56 48 86c0 32 -11 48 -32 55c-21 6 -81 11 -174 11h-10v164c0 91 78 172 169 172h119l5 -96h-120z" />
    <glyph glyph-name="afii57534" unicode="&#x6d5;" horiz-adv-x="421" 
d="M216 83c43 0 80 36 80 78c0 20 -5 35 -12 44l-73 76c-31 -31 -52 -54 -65 -71l-1 -1c-3 -1 -7 -14 -8 -17l-6 -30c0 -10 6 -26 20 -48l1 -3c17 -19 38 -28 64 -28zM214 -16c-99 0 -181 86 -181 185c0 35 10 71 31 106c11 11 21 26 31 39l43 42l-27 33l70 70l173 -182
c30 -38 45 -77 45 -120c0 -44 -19 -85 -55 -120s-81 -53 -130 -53z" />
    <glyph glyph-name="uni06DF" unicode="&#x6df;" 
d="M-35 586c0 19 16 36 35 36s35 -17 35 -36c0 -20 -15 -35 -35 -35s-35 15 -35 35z" />
    <glyph glyph-name="uni06EA" unicode="&#x6ea;" 
d="M36 -72l-36 36l-36 -36l36 -36zM75 -71l-76 -76l-74 75l76 75z" />
    <glyph glyph-name="uni06EB" unicode="&#x6eb;" 
d="M36 624l-36 36l-36 -36l36 -36zM75 625l-76 -76l-74 75l76 75z" />
    <glyph glyph-name="uni06EC" unicode="&#x6ed;" 
 />
    <glyph glyph-name="afii57392" unicode="&#x6f0;" horiz-adv-x="309" 
d="M112 257c0 -23 21 -43 45 -43c28 0 45 21 45 43c0 24 -21 44 -45 44s-45 -20 -45 -44zM262 257c0 -56 -50 -102 -105 -102c-56 0 -104 46 -104 102c0 57 48 102 104 102c55 0 105 -46 105 -102z" />
    <glyph glyph-name="afii57393" unicode="&#x6f1;" horiz-adv-x="282" 
d="M106 287c0 113 -12 193 -46 296l99 33l33 -133c10 -67 15 -132 15 -196v-292h-101v292z" />
    <glyph glyph-name="afii57394" unicode="&#x6f2;" horiz-adv-x="508" 
d="M349 473c0 36 -9 77 -14 114l95 31l2 -11c11 -75 16 -119 16 -134l1 -34c0 -45 -18 -79 -52 -98c-32 -18 -58 -29 -81 -29h-24c-19 0 -43 8 -67 21l2 -336h-103v278c0 126 -14 226 -41 299l-4 9l99 35l38 -161c9 -38 29 -54 65 -54c40 0 68 29 68 70z" />
    <glyph glyph-name="afii57395" unicode="&#x6f3;" horiz-adv-x="641" 
d="M68 275c0 118 -18 218 -48 308l101 35l37 -161c10 -38 31 -54 66 -54c38 0 70 32 70 70c0 35 -14 76 -19 113l97 36l2 -11c13 -73 21 -126 21 -161l-2 -23c14 -19 29 -28 50 -28c42 0 66 30 66 74c0 37 -10 76 -15 114l98 31l15 -133l1 -26c0 -34 -12 -72 -38 -98
c-29 -26 -62 -40 -100 -40h-12c-43 0 -78 20 -103 58c-16 -42 -46 -65 -100 -65c-32 0 -61 9 -87 24l1 -341h-101v278z" />
    <glyph glyph-name="afii62843" unicode="&#x6f4;" horiz-adv-x="628" 
d="M566 345c-67 -33 -143 -49 -196 -49c-48 0 -102 13 -160 36v-335h-99v284c0 46 -2 84 -7 113c-8 49 -5 66 -18 102h-1l-22 87l98 35l26 -107l17 -80l39 -21c0 76 8 110 44 154c32 37 75 57 127 57c41 0 84 -14 124 -32l-36 -91l-10 7c-24 16 -49 23 -74 23
c-27 0 -49 -12 -68 -35v-1c-4 -8 -8 -14 -11 -17c-6 -13 -7 -22 -7 -30c0 -5 3 -15 4 -22v-1c0 -21 32 -35 62 -35c34 0 76 13 126 39l10 5z" />
    <glyph glyph-name="afii62844" unicode="&#x6f5;" horiz-adv-x="729" 
d="M262 109c41 0 69 36 69 79c0 8 -3 17 -4 26l-1 11h101l5 -19l3 -20l-2 -35c0 -8 -3 -18 -7 -27c18 -10 35 -14 55 -14c35 0 59 14 73 36l1 1c6 12 8 28 8 48c0 17 -8 43 -25 76c-33 59 -96 128 -188 204c-109 -116 -162 -209 -162 -281c0 -50 27 -85 74 -85zM236 -2
c-96 0 -155 89 -155 183c0 79 33 157 95 234l97 121l-36 26l66 79l7 -6c238 -180 360 -334 360 -466c0 -49 -19 -91 -55 -125h-1v-1c-35 -29 -77 -43 -127 -43c-49 0 -89 12 -121 35c-45 -25 -87 -37 -130 -37z" />
    </font>
</defs>
</svg>
